<svg id="Layer_1" xmlns="http://www.w3.org/2000/svg" viewBox="0 0 3000 2256">
  <defs>
    <style>
      .cls-1 {
        stroke: #000;
        stroke-width: 5px;
      }

      .cls-1, .cls-2 {
        fill: #fff;
      }

      .cls-1, .cls-3 {
        stroke-miterlimit: 10;
      }

      .cls-4 {
        opacity: .65;
      }

      .cls-5 {
        fill: #ed2e2d;
      }

      .cls-3 {
        fill: none;
        stroke: #ed2e2d;
        stroke-width: 13.94px;
      }

      .cls-6 {
        fill: #c4c3c3;
      }
    </style>
  </defs>
  <polygon class="cls-5" points="2782.63 2137.23 2868.49 2065.82 2857.82 2113.48 2893.92 2146.37 2782.63 2137.23"/>
  <g>
    <circle class="cls-1" cx="2834.42" cy="1321" r="64.24"/>
    <path d="M2834.57,1346.71v-34.14h-13.23v-8.04c1.85.05,3.65-.09,5.38-.41,1.73-.33,3.28-.9,4.66-1.73s2.54-1.92,3.5-3.27c.95-1.35,1.58-3.03,1.88-5.04h8.5v52.64h-10.68Z"/>
  </g>
  <g>
    <circle class="cls-1" cx="2834.42" cy="311.93" r="64.24"/>
    <path d="M2818.66,296.84c.8-2.58,2-4.84,3.61-6.77,1.6-1.93,3.62-3.43,6.05-4.51,2.43-1.08,5.23-1.62,8.38-1.62,2.41,0,4.7.38,6.88,1.13s4.1,1.83,5.75,3.23c1.65,1.4,2.97,3.13,3.95,5.19.98,2.06,1.47,4.36,1.47,6.92s-.43,4.94-1.28,6.84c-.85,1.91-1.98,3.6-3.38,5.08-1.4,1.48-3,2.82-4.77,4.02-1.78,1.2-3.57,2.39-5.38,3.57-1.8,1.18-3.56,2.44-5.26,3.8-1.71,1.35-3.21,2.93-4.51,4.74h24.89v9.17h-38.65c0-3.06.44-5.71,1.32-7.97.88-2.26,2.07-4.27,3.57-6.05,1.5-1.78,3.27-3.42,5.3-4.93,2.03-1.5,4.17-3.03,6.43-4.59,1.15-.8,2.38-1.62,3.68-2.44,1.3-.83,2.49-1.74,3.57-2.74,1.08-1,1.98-2.13,2.71-3.38.73-1.25,1.09-2.68,1.09-4.29,0-2.56-.74-4.55-2.22-5.98-1.48-1.43-3.37-2.14-5.68-2.14-1.55,0-2.87.36-3.95,1.09-1.08.73-1.94,1.68-2.59,2.86-.65,1.18-1.12,2.48-1.39,3.91s-.41,2.85-.41,4.25h-10.23c-.1-3.01.25-5.8,1.05-8.38Z"/>
  </g>
  <g>
    <circle class="cls-1" cx="166.64" cy="311.93" r="64.24"/>
    <path d="M167.66,306.28c1.3-.1,2.52-.39,3.65-.86,1.13-.48,2.05-1.17,2.78-2.07.73-.9,1.09-2.11,1.09-3.61,0-2.26-.75-3.99-2.26-5.19s-3.23-1.8-5.19-1.8c-2.71,0-4.75.89-6.13,2.67-1.38,1.78-2.04,4.02-1.99,6.73h-10.15c.1-2.71.59-5.18,1.47-7.41.88-2.23,2.11-4.15,3.68-5.75,1.58-1.6,3.47-2.84,5.68-3.72,2.21-.88,4.66-1.32,7.37-1.32,2.11,0,4.21.31,6.32.94,2.11.63,4,1.57,5.68,2.82,1.68,1.25,3.05,2.78,4.1,4.59s1.58,3.89,1.58,6.24c0,2.56-.61,4.81-1.84,6.77-1.23,1.96-3.07,3.28-5.53,3.99v.15c2.91.65,5.19,2.06,6.84,4.21,1.65,2.16,2.48,4.74,2.48,7.75,0,2.76-.54,5.21-1.62,7.37-1.08,2.16-2.52,3.96-4.32,5.41-1.8,1.45-3.89,2.56-6.24,3.31-2.36.75-4.81,1.13-7.37,1.13-2.96,0-5.65-.43-8.08-1.28-2.43-.85-4.5-2.09-6.2-3.72-1.71-1.63-3.02-3.62-3.95-5.98-.93-2.36-1.37-5.06-1.32-8.12h10.15c.05,1.4.27,2.74.68,4.02.4,1.28.98,2.38,1.73,3.31.75.93,1.69,1.67,2.82,2.22,1.13.55,2.47.83,4.02.83,2.41,0,4.44-.74,6.09-2.22,1.65-1.48,2.48-3.5,2.48-6.05,0-2-.39-3.53-1.17-4.59-.78-1.05-1.77-1.82-2.97-2.29-1.2-.48-2.52-.75-3.95-.83s-2.79-.11-4.1-.11v-7.52c1.15.1,2.38.1,3.68,0Z"/>
  </g>
  <g>
    <circle class="cls-1" cx="166.64" cy="1321" r="64.24"/>
    <path d="M146.94,1334.53v-9.77l22.86-30.68h9.55v31.66h6.99v8.8h-6.99v12.18h-10.15v-12.18h-22.26ZM168.97,1307.46l-13.61,18.27h13.84v-18.27h-.23Z"/>
  </g>
  <path d="M2694.54,2061.47l37.25,59.88h.25v-59.88h18.38v89.25h-19.62l-37.12-59.75h-.25v59.75h-18.38v-89.25h19.5Z"/>
  <g>
    <path d="M981.82,2065.55v37l34.88-37h24.5l-34.88,35.25,38.25,54h-24.62l-26.88-40.12-11.25,11.38v28.75h-19.62v-89.25h19.62Z"/>
    <path d="M1049.82,2110.05c.25-4.17,1.29-7.62,3.12-10.38,1.83-2.75,4.17-4.96,7-6.62,2.83-1.67,6.02-2.85,9.56-3.56,3.54-.71,7.1-1.06,10.69-1.06,3.25,0,6.54.23,9.88.69,3.33.46,6.38,1.36,9.12,2.69,2.75,1.33,5,3.19,6.75,5.56s2.62,5.52,2.62,9.44v33.62c0,2.92.17,5.71.5,8.38.33,2.67.92,4.67,1.75,6h-18c-.33-1-.61-2.02-.81-3.06-.21-1.04-.36-2.1-.44-3.19-2.83,2.92-6.17,4.96-10,6.12-3.83,1.17-7.75,1.75-11.75,1.75-3.08,0-5.96-.38-8.62-1.12-2.67-.75-5-1.92-7-3.5-2-1.58-3.56-3.58-4.69-6-1.12-2.42-1.69-5.29-1.69-8.62,0-3.67.64-6.69,1.94-9.06,1.29-2.38,2.96-4.27,5-5.69,2.04-1.42,4.38-2.48,7-3.19,2.62-.71,5.27-1.27,7.94-1.69,2.67-.42,5.29-.75,7.88-1,2.58-.25,4.88-.62,6.88-1.12s3.58-1.23,4.75-2.19c1.17-.96,1.71-2.35,1.62-4.19,0-1.92-.31-3.44-.94-4.56s-1.46-2-2.5-2.62c-1.04-.62-2.25-1.04-3.62-1.25-1.38-.21-2.86-.31-4.44-.31-3.5,0-6.25.75-8.25,2.25s-3.17,4-3.5,7.5h-17.75ZM1090.82,2123.18c-.75.67-1.69,1.19-2.81,1.56s-2.33.69-3.62.94c-1.29.25-2.65.46-4.06.62-1.42.17-2.83.38-4.25.62-1.33.25-2.65.58-3.94,1-1.29.42-2.42.98-3.38,1.69-.96.71-1.73,1.61-2.31,2.69-.58,1.08-.88,2.46-.88,4.12s.29,2.92.88,4c.58,1.08,1.38,1.94,2.38,2.56s2.17,1.06,3.5,1.31c1.33.25,2.71.38,4.12.38,3.5,0,6.21-.58,8.12-1.75,1.92-1.17,3.33-2.56,4.25-4.19.92-1.62,1.48-3.27,1.69-4.94.21-1.67.31-3,.31-4v-6.62Z"/>
    <path d="M1139.19,2090.18v9h.38c2.25-3.75,5.17-6.48,8.75-8.19,3.58-1.71,7.25-2.56,11-2.56,4.75,0,8.64.65,11.69,1.94,3.04,1.29,5.44,3.08,7.19,5.38,1.75,2.29,2.98,5.08,3.69,8.38.71,3.29,1.06,6.94,1.06,10.94v39.75h-17.75v-36.5c0-5.33-.83-9.31-2.5-11.94-1.67-2.62-4.62-3.94-8.88-3.94-4.83,0-8.33,1.44-10.5,4.31-2.17,2.88-3.25,7.61-3.25,14.19v33.88h-17.75v-64.62h16.88Z"/>
    <path d="M1211.38,2138.74c.79,1.38,1.81,2.5,3.06,3.38s2.69,1.52,4.31,1.94c1.62.42,3.31.62,5.06.62,1.25,0,2.56-.14,3.94-.44,1.38-.29,2.62-.75,3.75-1.38s2.06-1.46,2.81-2.5c.75-1.04,1.12-2.35,1.12-3.94,0-2.67-1.77-4.67-5.31-6-3.54-1.33-8.48-2.67-14.81-4-2.58-.58-5.11-1.27-7.56-2.06-2.46-.79-4.65-1.83-6.56-3.12-1.92-1.29-3.46-2.92-4.62-4.88-1.17-1.96-1.75-4.35-1.75-7.19,0-4.17.81-7.58,2.44-10.25,1.62-2.67,3.77-4.77,6.44-6.31,2.67-1.54,5.67-2.62,9-3.25,3.33-.62,6.75-.94,10.25-.94s6.89.33,10.19,1c3.29.67,6.23,1.79,8.81,3.38,2.58,1.58,4.73,3.69,6.44,6.31,1.71,2.62,2.73,5.94,3.06,9.94h-16.88c-.25-3.42-1.54-5.73-3.88-6.94-2.33-1.21-5.08-1.81-8.25-1.81-1,0-2.08.06-3.25.19-1.17.12-2.23.4-3.19.81-.96.42-1.77,1.02-2.44,1.81-.67.79-1,1.86-1,3.19,0,1.58.58,2.88,1.75,3.88,1.17,1,2.69,1.81,4.56,2.44s4.02,1.19,6.44,1.69c2.42.5,4.88,1.04,7.38,1.62,2.58.58,5.1,1.29,7.56,2.12,2.46.83,4.64,1.94,6.56,3.31,1.92,1.38,3.46,3.08,4.62,5.12,1.17,2.04,1.75,4.56,1.75,7.56,0,4.25-.86,7.81-2.56,10.69-1.71,2.88-3.94,5.19-6.69,6.94s-5.9,2.98-9.44,3.69c-3.54.71-7.15,1.06-10.81,1.06s-7.42-.38-11-1.12c-3.58-.75-6.77-2-9.56-3.75-2.79-1.75-5.08-4.06-6.88-6.94-1.79-2.88-2.77-6.48-2.94-10.81h16.88c0,1.92.39,3.56,1.19,4.94Z"/>
    <path d="M1262.81,2110.05c.25-4.17,1.29-7.62,3.12-10.38,1.83-2.75,4.17-4.96,7-6.62,2.83-1.67,6.02-2.85,9.56-3.56,3.54-.71,7.1-1.06,10.69-1.06,3.25,0,6.54.23,9.88.69,3.33.46,6.38,1.36,9.12,2.69,2.75,1.33,5,3.19,6.75,5.56s2.62,5.52,2.62,9.44v33.62c0,2.92.17,5.71.5,8.38.33,2.67.92,4.67,1.75,6h-18c-.33-1-.61-2.02-.81-3.06-.21-1.04-.36-2.1-.44-3.19-2.83,2.92-6.17,4.96-10,6.12-3.83,1.17-7.75,1.75-11.75,1.75-3.08,0-5.96-.38-8.62-1.12-2.67-.75-5-1.92-7-3.5-2-1.58-3.56-3.58-4.69-6-1.12-2.42-1.69-5.29-1.69-8.62,0-3.67.64-6.69,1.94-9.06,1.29-2.38,2.96-4.27,5-5.69,2.04-1.42,4.38-2.48,7-3.19,2.62-.71,5.27-1.27,7.94-1.69,2.67-.42,5.29-.75,7.88-1,2.58-.25,4.88-.62,6.88-1.12s3.58-1.23,4.75-2.19c1.17-.96,1.71-2.35,1.62-4.19,0-1.92-.31-3.44-.94-4.56s-1.46-2-2.5-2.62c-1.04-.62-2.25-1.04-3.62-1.25-1.38-.21-2.86-.31-4.44-.31-3.5,0-6.25.75-8.25,2.25s-3.17,4-3.5,7.5h-17.75ZM1303.81,2123.18c-.75.67-1.69,1.19-2.81,1.56s-2.33.69-3.62.94c-1.29.25-2.65.46-4.06.62-1.42.17-2.83.38-4.25.62-1.33.25-2.65.58-3.94,1-1.29.42-2.42.98-3.38,1.69-.96.71-1.73,1.61-2.31,2.69-.58,1.08-.88,2.46-.88,4.12s.29,2.92.88,4c.58,1.08,1.38,1.94,2.38,2.56s2.17,1.06,3.5,1.31c1.33.25,2.71.38,4.12.38,3.5,0,6.21-.58,8.12-1.75,1.92-1.17,3.33-2.56,4.25-4.19.92-1.62,1.48-3.27,1.69-4.94.21-1.67.31-3,.31-4v-6.62Z"/>
    <path d="M1350.25,2138.74c.79,1.38,1.81,2.5,3.06,3.38s2.69,1.52,4.31,1.94c1.62.42,3.31.62,5.06.62,1.25,0,2.56-.14,3.94-.44,1.38-.29,2.62-.75,3.75-1.38s2.06-1.46,2.81-2.5c.75-1.04,1.12-2.35,1.12-3.94,0-2.67-1.77-4.67-5.31-6-3.54-1.33-8.48-2.67-14.81-4-2.58-.58-5.11-1.27-7.56-2.06-2.46-.79-4.65-1.83-6.56-3.12-1.92-1.29-3.46-2.92-4.62-4.88-1.17-1.96-1.75-4.35-1.75-7.19,0-4.17.81-7.58,2.44-10.25,1.62-2.67,3.77-4.77,6.44-6.31,2.67-1.54,5.67-2.62,9-3.25,3.33-.62,6.75-.94,10.25-.94s6.89.33,10.19,1c3.29.67,6.23,1.79,8.81,3.38,2.58,1.58,4.73,3.69,6.44,6.31,1.71,2.62,2.73,5.94,3.06,9.94h-16.88c-.25-3.42-1.54-5.73-3.88-6.94-2.33-1.21-5.08-1.81-8.25-1.81-1,0-2.08.06-3.25.19-1.17.12-2.23.4-3.19.81-.96.42-1.77,1.02-2.44,1.81-.67.79-1,1.86-1,3.19,0,1.58.58,2.88,1.75,3.88,1.17,1,2.69,1.81,4.56,2.44s4.02,1.19,6.44,1.69c2.42.5,4.88,1.04,7.38,1.62,2.58.58,5.1,1.29,7.56,2.12,2.46.83,4.64,1.94,6.56,3.31,1.92,1.38,3.46,3.08,4.62,5.12,1.17,2.04,1.75,4.56,1.75,7.56,0,4.25-.86,7.81-2.56,10.69-1.71,2.88-3.94,5.19-6.69,6.94s-5.9,2.98-9.44,3.69c-3.54.71-7.15,1.06-10.81,1.06s-7.42-.38-11-1.12c-3.58-.75-6.77-2-9.56-3.75-2.79-1.75-5.08-4.06-6.88-6.94-1.79-2.88-2.77-6.48-2.94-10.81h16.88c0,1.92.39,3.56,1.19,4.94Z"/>
    <path d="M1454.06,2132.8c1.08,2.08,2.52,3.77,4.31,5.06,1.79,1.29,3.89,2.25,6.31,2.88,2.42.62,4.92.94,7.5.94,1.75,0,3.62-.14,5.62-.44,2-.29,3.88-.85,5.62-1.69,1.75-.83,3.21-1.98,4.38-3.44,1.17-1.46,1.75-3.31,1.75-5.56,0-2.42-.77-4.38-2.31-5.88-1.54-1.5-3.56-2.75-6.06-3.75s-5.33-1.88-8.5-2.62c-3.17-.75-6.38-1.58-9.62-2.5-3.33-.83-6.58-1.85-9.75-3.06-3.17-1.21-6-2.77-8.5-4.69-2.5-1.92-4.52-4.31-6.06-7.19-1.54-2.88-2.31-6.35-2.31-10.44,0-4.58.98-8.56,2.94-11.94,1.96-3.38,4.52-6.19,7.69-8.44,3.17-2.25,6.75-3.92,10.75-5,4-1.08,8-1.62,12-1.62,4.67,0,9.14.52,13.44,1.56,4.29,1.04,8.1,2.73,11.44,5.06,3.33,2.33,5.98,5.31,7.94,8.94,1.96,3.62,2.94,8.02,2.94,13.19h-19c-.17-2.67-.73-4.88-1.69-6.62-.96-1.75-2.23-3.12-3.81-4.12-1.58-1-3.4-1.71-5.44-2.12-2.04-.42-4.27-.62-6.69-.62-1.58,0-3.17.17-4.75.5-1.58.33-3.02.92-4.31,1.75-1.29.83-2.36,1.88-3.19,3.12-.83,1.25-1.25,2.83-1.25,4.75,0,1.75.33,3.17,1,4.25.67,1.08,1.98,2.08,3.94,3,1.96.92,4.67,1.83,8.12,2.75,3.46.92,7.98,2.08,13.56,3.5,1.67.33,3.98.94,6.94,1.81,2.96.88,5.89,2.27,8.81,4.19,2.92,1.92,5.44,4.48,7.56,7.69,2.12,3.21,3.19,7.31,3.19,12.31,0,4.08-.79,7.88-2.38,11.38-1.58,3.5-3.94,6.52-7.06,9.06-3.12,2.54-7,4.52-11.62,5.94s-9.98,2.12-16.06,2.12c-4.92,0-9.69-.61-14.31-1.81s-8.71-3.1-12.25-5.69c-3.54-2.58-6.36-5.88-8.44-9.88-2.08-4-3.08-8.75-3-14.25h19c0,3,.54,5.54,1.62,7.62Z"/>
    <path d="M1535.18,2090.18v8.25h.25c2.17-3.5,4.92-6.04,8.25-7.62,3.33-1.58,7-2.38,11-2.38,5.08,0,9.46.96,13.12,2.88,3.67,1.92,6.71,4.46,9.12,7.62,2.42,3.17,4.21,6.86,5.38,11.06,1.17,4.21,1.75,8.61,1.75,13.19,0,4.33-.58,8.5-1.75,12.5-1.17,4-2.94,7.54-5.31,10.62-2.38,3.08-5.33,5.54-8.88,7.38-3.54,1.83-7.69,2.75-12.44,2.75-4,0-7.69-.81-11.06-2.44s-6.15-4.02-8.31-7.19h-.25v30.62h-17.75v-87.25h16.88ZM1558.25,2141.43c1.96-1.17,3.54-2.69,4.75-4.56,1.21-1.88,2.06-4.06,2.56-6.56s.75-5.04.75-7.62-.27-5.12-.81-7.62c-.54-2.5-1.44-4.73-2.69-6.69-1.25-1.96-2.86-3.54-4.81-4.75-1.96-1.21-4.36-1.81-7.19-1.81s-5.36.61-7.31,1.81c-1.96,1.21-3.54,2.77-4.75,4.69-1.21,1.92-2.06,4.12-2.56,6.62s-.75,5.08-.75,7.75.27,5.12.81,7.62c.54,2.5,1.42,4.69,2.62,6.56,1.21,1.88,2.81,3.4,4.81,4.56,2,1.17,4.42,1.75,7.25,1.75s5.35-.58,7.31-1.75Z"/>
    <path d="M1613.68,2139.3c2.67,2.58,6.5,3.88,11.5,3.88,3.58,0,6.67-.89,9.25-2.69,2.58-1.79,4.17-3.69,4.75-5.69h15.62c-2.5,7.75-6.33,13.29-11.5,16.62-5.17,3.33-11.42,5-18.75,5-5.08,0-9.67-.81-13.75-2.44-4.08-1.62-7.54-3.94-10.38-6.94-2.83-3-5.02-6.58-6.56-10.75-1.54-4.17-2.31-8.75-2.31-13.75s.79-9.33,2.38-13.5c1.58-4.17,3.83-7.77,6.75-10.81,2.92-3.04,6.39-5.44,10.44-7.19,4.04-1.75,8.52-2.62,13.44-2.62,5.5,0,10.29,1.06,14.38,3.19,4.08,2.12,7.44,4.98,10.06,8.56,2.62,3.58,4.52,7.67,5.69,12.25,1.17,4.58,1.58,9.38,1.25,14.38h-46.62c.25,5.75,1.71,9.92,4.38,12.5ZM1633.75,2105.3c-2.12-2.33-5.36-3.5-9.69-3.5-2.83,0-5.19.48-7.06,1.44-1.88.96-3.38,2.15-4.5,3.56-1.12,1.42-1.92,2.92-2.38,4.5-.46,1.58-.73,3-.81,4.25h28.88c-.83-4.5-2.31-7.92-4.44-10.25Z"/>
    <path d="M1685.43,2139.3c2.67,2.58,6.5,3.88,11.5,3.88,3.58,0,6.67-.89,9.25-2.69,2.58-1.79,4.17-3.69,4.75-5.69h15.62c-2.5,7.75-6.33,13.29-11.5,16.62-5.17,3.33-11.42,5-18.75,5-5.08,0-9.67-.81-13.75-2.44-4.08-1.62-7.54-3.94-10.38-6.94-2.83-3-5.02-6.58-6.56-10.75-1.54-4.17-2.31-8.75-2.31-13.75s.79-9.33,2.38-13.5c1.58-4.17,3.83-7.77,6.75-10.81,2.92-3.04,6.39-5.44,10.44-7.19,4.04-1.75,8.52-2.62,13.44-2.62,5.5,0,10.29,1.06,14.38,3.19,4.08,2.12,7.44,4.98,10.06,8.56,2.62,3.58,4.52,7.67,5.69,12.25,1.17,4.58,1.58,9.38,1.25,14.38h-46.62c.25,5.75,1.71,9.92,4.38,12.5ZM1705.49,2105.3c-2.12-2.33-5.36-3.5-9.69-3.5-2.83,0-5.19.48-7.06,1.44-1.88.96-3.38,2.15-4.5,3.56-1.12,1.42-1.92,2.92-2.38,4.5-.46,1.58-.73,3-.81,4.25h28.88c-.83-4.5-2.31-7.92-4.44-10.25Z"/>
    <path d="M1784.05,2146.55c-2.08,3.5-4.81,6.02-8.19,7.56s-7.19,2.31-11.44,2.31c-4.83,0-9.08-.94-12.75-2.81-3.67-1.88-6.69-4.42-9.06-7.62-2.38-3.21-4.17-6.89-5.38-11.06-1.21-4.17-1.81-8.5-1.81-13s.6-8.52,1.81-12.56c1.21-4.04,3-7.6,5.38-10.69,2.38-3.08,5.35-5.56,8.94-7.44,3.58-1.88,7.75-2.81,12.5-2.81,3.83,0,7.48.81,10.94,2.44,3.46,1.62,6.19,4.02,8.19,7.19h.25v-32.5h17.75v89.25h-16.88v-8.25h-.25ZM1783.3,2114.61c-.5-2.46-1.36-4.62-2.56-6.5-1.21-1.88-2.77-3.39-4.69-4.56-1.92-1.17-4.33-1.75-7.25-1.75s-5.38.58-7.38,1.75c-2,1.17-3.61,2.71-4.81,4.62-1.21,1.92-2.08,4.11-2.62,6.56-.54,2.46-.81,5.02-.81,7.69,0,2.5.29,5,.88,7.5.58,2.5,1.52,4.73,2.81,6.69,1.29,1.96,2.92,3.54,4.88,4.75,1.96,1.21,4.31,1.81,7.06,1.81,2.92,0,5.35-.58,7.31-1.75,1.96-1.17,3.52-2.73,4.69-4.69,1.17-1.96,2-4.19,2.5-6.69s.75-5.08.75-7.75-.25-5.23-.75-7.69Z"/>
    <path d="M1870.18,2154.8l-11.5-43.38h-.25l-11,43.38h-18.38l-20.5-64.62h18.75l11.88,43.88h.25l10.75-43.88h17.25l11,43.75h.25l11.88-43.75h18.25l-20.38,64.62h-18.25Z"/>
    <path d="M1915.55,2110.05c.25-4.17,1.29-7.62,3.12-10.38,1.83-2.75,4.17-4.96,7-6.62,2.83-1.67,6.02-2.85,9.56-3.56,3.54-.71,7.1-1.06,10.69-1.06,3.25,0,6.54.23,9.88.69,3.33.46,6.38,1.36,9.12,2.69,2.75,1.33,5,3.19,6.75,5.56s2.62,5.52,2.62,9.44v33.62c0,2.92.17,5.71.5,8.38.33,2.67.92,4.67,1.75,6h-18c-.33-1-.61-2.02-.81-3.06-.21-1.04-.36-2.1-.44-3.19-2.83,2.92-6.17,4.96-10,6.12-3.83,1.17-7.75,1.75-11.75,1.75-3.08,0-5.96-.38-8.62-1.12-2.67-.75-5-1.92-7-3.5-2-1.58-3.56-3.58-4.69-6-1.12-2.42-1.69-5.29-1.69-8.62,0-3.67.64-6.69,1.94-9.06,1.29-2.38,2.96-4.27,5-5.69,2.04-1.42,4.38-2.48,7-3.19,2.62-.71,5.27-1.27,7.94-1.69,2.67-.42,5.29-.75,7.88-1,2.58-.25,4.88-.62,6.88-1.12s3.58-1.23,4.75-2.19c1.17-.96,1.71-2.35,1.62-4.19,0-1.92-.31-3.44-.94-4.56s-1.46-2-2.5-2.62c-1.04-.62-2.25-1.04-3.62-1.25-1.38-.21-2.86-.31-4.44-.31-3.5,0-6.25.75-8.25,2.25s-3.17,4-3.5,7.5h-17.75ZM1956.55,2123.18c-.75.67-1.69,1.19-2.81,1.56s-2.33.69-3.62.94c-1.29.25-2.65.46-4.06.62-1.42.17-2.83.38-4.25.62-1.33.25-2.65.58-3.94,1-1.29.42-2.42.98-3.38,1.69-.96.71-1.73,1.61-2.31,2.69-.58,1.08-.88,2.46-.88,4.12s.29,2.92.88,4c.58,1.08,1.38,1.94,2.38,2.56s2.17,1.06,3.5,1.31c1.33.25,2.71.38,4.12.38,3.5,0,6.21-.58,8.12-1.75,1.92-1.17,3.33-2.56,4.25-4.19.92-1.62,1.48-3.27,1.69-4.94.21-1.67.31-3,.31-4v-6.62Z"/>
    <path d="M2011.93,2174.05c-3.42,2.25-8.17,3.38-14.25,3.38-1.83,0-3.65-.06-5.44-.19-1.79-.12-3.61-.27-5.44-.44v-14.62c1.67.17,3.38.33,5.12.5,1.75.17,3.5.21,5.25.12,2.33-.25,4.06-1.17,5.19-2.75,1.12-1.58,1.69-3.33,1.69-5.25,0-1.42-.25-2.75-.75-4l-22.62-60.62h18.88l14.62,44.25h.25l14.12-44.25h18.38l-27,72.62c-1.92,5.25-4.58,9-8,11.25Z"/>
  </g>
  <g class="cls-4">
    <polygon class="cls-6" points="2187.28 1412.37 2187.28 1412.37 2187.28 1412.37 2187.28 1412.37"/>
    <path class="cls-6" d="M2687.98,383.75c117.18,152.49,114.02,374.56,113.66,388.48-.4,15.65-7.65,31.98-21.36,40.25-23.32,14.06-51.2,1.17-64.91-19.63-.83-1.26-1.65-2.51-2.48-3.77-18.37-28.03-35.97-56.69-56.22-83.28-9.9-13-20.1-25.76-30.61-38.27-10.06-11.98-20.41-23.71-31.03-35.19-10.18-10.99-20.63-21.75-31.33-32.24-10.26-10.06-20.76-19.87-31.5-29.41-10.3-9.16-20.81-18.07-31.53-26.72-10.29-8.3-20.77-16.36-31.44-24.15-10.24-7.48-20.65-14.72-31.23-21.72-10.14-6.7-20.44-13.18-30.88-19.41-10-5.97-20.14-11.72-30.41-17.23-9.82-5.28-19.76-10.34-29.8-15.18-9.6-4.62-19.29-9.04-29.07-13.26-9.33-4.01-18.73-7.84-28.22-11.46-9.01-3.45-18.09-6.71-27.23-9.8-8.65-2.92-17.36-5.67-26.11-8.26-8.25-2.44-16.54-4.72-24.87-6.85-7.8-2-15.63-3.86-23.5-5.58-7.31-1.6-14.64-3.07-22-4.43-6.77-1.24-13.56-2.38-20.37-3.4-6.71-1.01-13.43-1.9-20.17-2.71-27.36-3.28-54.48-3.19-81.96-3.19h-1017.89c-24.75,0-50.25,7.57-72.31,18.4-37.97,18.63-67.22,52.55-62.81,97.24,1.29,13.06,5.52,25.81,12.19,37.1,15.18,25.69,46.24,40.98,75.87,40.98h1086.35c20.56,0,41.14,1.37,61.46,4.52,34.05,5.27,67.42,15.65,97.59,32.45,24.66,13.74,46.88,31.67,65.49,52.9,15.95,18.19,29.21,38.64,39.76,60.39,8.54,17.6,15.33,36.05,20.38,54.95,1.89,7.07,3.52,14.2,4.91,21.38,4.83,24.9,3.27,49.83,3.27,75.02,0,52.1,52.77,81.45,52.77,81.45,0,0,191.25,96.47,250.41,125.37,59.16,28.91,37.42,67.34,37.42,67.34,0,0-46.83,99.27-196.07,186.66-149.23,87.39-314.91,78.88-314.92,78.88v13.46h71.02s247.19,15.42,450.06-187.13c20.77-30.39,33.74-65.49,31.28-102.21-1.3-19.45-6.38-37.53-18.13-53.35-11.56-15.57-27.75-27.43-44.93-35.82-13.74-6.71-27.43-13.52-41.12-20.34-19.98-9.95-39.95-19.94-59.91-29.94,7.81-14.97,14.03-30.84,19.81-46.64,6.88-18.78,12.57-38.09,15.46-57.91,3.85-26.51,2.71-53.4,2.03-80.12-.86-33.59-1.71-67.18-2.76-100.77,16.05,21.98,31.01,44.88,43.37,69.13,9.59,18.82,19.36,37.89,31.76,55.06,7.79,10.79,16.99,20.85,28.88,27.15,31.04,16.43,73.11,12.28,100.31-9.48,24.23-19.39,38.91-50.15,40.38-80.95.5-10.37-15.62-103.89-45.08-213.26-38.16-101.02-114.72-181.91-114.72-181.91l-7.02,6.41M2568.32,920.85c-2.72,10.21-6.59,20.33-13.28,28.51-12.67,15.49-31.96,16.91-50.09,12.25-16.13-8.11-32.26-16.22-48.39-24.35-20.81-10.48-42.16-19.26-54.04-40.62-3.28-5.89-5.67-12.28-7.1-18.87-1.46-6.73-1.04-13.15-1.47-19.92-.94-14.56.14-29.3-1.2-43.89-1.51-16.34-4.76-32.47-9.06-48.29-8.47-31.15-21.14-61.24-38.14-88.7-40.01-64.66-121.19-139.34-280.75-139.34H978.66c-17.11,0-35.4-7.61-43.02-23.81-7.19-15.3-2.87-33.24,6.4-46.58,23.1-33.24,68.98-48.46,107.36-52.79,7.58-.86,15.2-1.29,22.83-1.29h973.19c26.29,0,51.11,0,75.68,2.94,6.76.81,13.01,1.65,19.1,2.57,6.36.96,12.84,2.04,19.24,3.21,6.88,1.26,13.89,2.67,20.82,4.19,7.39,1.62,14.88,3.39,22.27,5.28,7.84,2.01,15.79,4.2,23.6,6.51,8.25,2.44,16.6,5.08,24.81,7.85,8.63,2.91,17.34,6.04,25.89,9.31,8.95,3.42,17.98,7.09,26.85,10.91,9.26,3.99,18.58,8.23,27.69,12.62,9.5,4.58,19.06,9.44,28.41,14.46,9.71,5.21,19.47,10.74,29,16.43,9.88,5.9,19.8,12.13,29.48,18.53,10.02,6.63,20.07,13.61,29.85,20.76,10.1,7.38,20.23,15.16,30.09,23.11,10.18,8.21,20.34,16.82,30.22,25.61,14.8,13.16,28.84,27.07,42.26,41.55,5.5,6.28,22.46,28.38,23.59,63.26,1.18,36.7,2.1,73.4,3.04,110.11.93,36.29.49,72.98-8.97,108.48Z"/>
  </g>
  <path d="M2791.26,446.85c-68.24-107.91-164.12-195.15-277.29-252.28-45.85-23.15-95.75-42.03-148.31-56.13-109.77-29.43-224.94-35.21-323.11-36.99-16.66-.3-33.48-.27-49.73-.23-5.19.01-10.38.02-15.57.02h-951.05c-5.2,0-10.41-.01-15.61-.02-16.3-.03-33.17-.07-49.87.23-98.43,1.77-213.9,7.55-323.96,36.98-52.7,14.09-102.73,32.97-148.69,56.12-113.46,57.13-209.6,144.37-278.02,252.27-70.42,111.07-107.65,238.65-107.65,368.96,0,44.78,4.21,89.62,12.52,133.3,8.15,42.84,20.35,85.12,36.25,125.68,15.62,39.83,35,78.46,57.6,114.81,22.37,35.99,48.13,70.12,76.56,101.44,28.4,31.29,59.75,60.09,93.17,85.6,42.01,32.06,87.33,57.52,130.14,80.84,5.81,3.17,11.5,6.23,16.91,9.09,50.57,26.82,102.23,53.49,152.19,79.29,18.7,9.66,37.41,19.32,56.1,29,10.54,5.46,21.05,10.94,31.57,16.42,75.85,39.53,154.29,80.41,236.82,111.4,151.31,56.82,304.02,87.79,453.88,92.04,14.91.42,30.47.64,46.24.64s31.24-.21,46.12-.64c149.47-4.25,301.78-35.22,452.7-92.05,76.57-28.83,148.28-66.68,217.64-103.28,15.56-8.21,31.64-16.7,47.58-24.98,49.72-25.84,100.21-52.8,149.04-78.87,19.57-10.45,39.11-20.89,58.62-31.26,5.49-2.92,11.16-5.98,16.86-9.09l7.32-3.99c27.55-15.02,56.04-30.55,83.06-48.75,73.52-49.5,137.12-111.75,189.03-185.03,58.81-83.02,97.78-173.3,115.81-268.32,8.29-43.67,12.49-88.52,12.49-133.29,0-130.3-37.12-257.87-107.35-368.94ZM2244.37,1532.02c-16.07,8.35-32.23,16.88-47.85,25.12-71.18,37.56-138.42,73.05-212.18,100.82-145.95,54.96-293.06,84.9-437.23,89-14.42.41-29.48.62-44.76.62s-30.42-.21-44.88-.62c-144.57-4.1-292.09-34.05-438.45-89.01-79.82-29.98-156.95-70.17-231.54-109.04-10.54-5.5-21.09-10.99-31.66-16.47-18.71-9.7-37.44-19.37-56.16-29.04-33.86-17.48-68.5-35.37-103.01-53.42,33.9,7.01,72.47,12.46,110.5,12.46h1590.42c32.94,0,66.3-4.09,96.67-9.75-.43.23-.87.46-1.3.69-48.71,26.01-99.08,52.9-148.56,78.62ZM2839.21,940.17c-12.19,64.22-34.93,126.19-66.38,183.46-14.05,25.59-29.03,50.77-46.52,74.19-17.91,23.99-38.53,43.85-61.55,62.82-15.71,12.95-31.95,25.25-48.68,36.84-18.07,12.51-36.72,24.19-55.91,34.93-20.45,11.44-41.5,21.81-63.06,30.99-22.85,9.72-46.28,18.1-70.14,25.02-25.31,7.34-51.09,13.04-77.14,17.03-29.55,4.53-59.25,6.64-89.12,6.99-17.09.2-34.18-.06-51.27-.06H795.26c-17.09,0-34.18.26-51.27.06-29.87-.35-59.58-2.46-89.12-6.99-26.05-3.99-51.83-9.69-77.14-17.03-23.85-6.92-47.28-15.3-70.14-25.02-21.56-9.17-42.61-19.54-63.06-30.99-19.18-10.73-37.83-22.41-55.91-34.93-16.74-11.59-32.97-23.89-48.68-36.84-30.68-25.28-62.6-52.58-84.74-86.68-23.75-36.59-43.65-76.05-59.57-116.64-14.83-37.81-26.2-77.23-33.8-117.17-7.75-40.74-11.68-82.59-11.68-124.38,0-121.24,34.66-239.98,100.22-343.39,63.8-100.62,153.42-181.94,259.17-235.19,43.05-21.68,90-39.39,139.55-52.64,105.08-28.1,216.93-33.65,312.48-35.37,11.07-.2,22.32-.25,33.45-.25,5.19,0,10.35.01,15.46.02,5.24.01,10.47.02,15.71.02h951.05c5.22,0,10.44-.01,15.66-.02,16.03-.03,32.6-.07,48.78.23,95.29,1.72,206.82,7.27,311.61,35.37,49.41,13.25,96.23,30.96,139.16,52.63,105.46,53.24,194.83,134.57,258.45,235.18,65.39,103.41,99.96,222.16,99.96,343.41,0,41.79-3.92,83.64-11.65,124.39Z"/>
  <g>
    <rect x="1500.51" y="1854.27" width="13.99" height="13.99" transform="translate(3015.01 3722.53) rotate(180)"/>
    <rect class="cls-2" x="1486.52" y="1854.27" width="13.99" height="13.99" transform="translate(2987.03 3722.53) rotate(180)"/>
    <rect class="cls-2" x="1500.51" y="1840.28" width="13.99" height="13.99" transform="translate(3015.01 3694.55) rotate(180)"/>
    <rect class="cls-2" x="1486.52" y="1826.29" width="13.99" height="13.99" transform="translate(2987.03 3666.57) rotate(180)"/>
    <rect class="cls-2" x="1500.51" y="1812.3" width="13.99" height="13.99" transform="translate(3015.01 3638.59) rotate(180)"/>
    <rect class="cls-2" x="1486.52" y="1798.31" width="13.99" height="13.99" transform="translate(2987.03 3610.61) rotate(180)"/>
    <rect class="cls-2" x="1500.51" y="1784.32" width="13.99" height="13.99" transform="translate(3015.01 3582.63) rotate(180)"/>
    <rect class="cls-2" x="1486.52" y="1770.33" width="13.99" height="13.99" transform="translate(2987.03 3554.65) rotate(180)"/>
    <rect class="cls-2" x="1500.51" y="1756.34" width="13.99" height="13.99" transform="translate(3015.01 3526.67) rotate(180)"/>
    <rect class="cls-2" x="1486.52" y="1742.35" width="13.99" height="13.99" transform="translate(2987.03 3498.69) rotate(180)"/>
    <rect class="cls-2" x="1500.51" y="1728.36" width="13.99" height="13.99" transform="translate(3015.01 3470.71) rotate(180)"/>
    <rect class="cls-2" x="1486.52" y="1714.37" width="13.99" height="13.99" transform="translate(2987.03 3442.73) rotate(180)"/>
    <rect class="cls-2" x="1500.51" y="1700.38" width="13.99" height="13.99" transform="translate(3015.01 3414.76) rotate(180)"/>
    <rect class="cls-2" x="1486.52" y="1686.39" width="13.99" height="13.99" transform="translate(2987.03 3386.78) rotate(180)"/>
    <rect class="cls-2" x="1500.51" y="1672.4" width="13.99" height="13.99" transform="translate(3015.01 3358.8) rotate(180)"/>
    <rect x="1486.52" y="1840.28" width="13.99" height="13.99" transform="translate(2987.03 3694.55) rotate(180)"/>
    <rect x="1500.51" y="1826.29" width="13.99" height="13.99" transform="translate(3015.01 3666.57) rotate(180)"/>
    <rect x="1486.52" y="1812.3" width="13.99" height="13.99" transform="translate(2987.03 3638.59) rotate(180)"/>
    <rect x="1500.51" y="1798.31" width="13.99" height="13.99" transform="translate(3015.01 3610.61) rotate(180)"/>
    <rect x="1486.52" y="1784.32" width="13.99" height="13.99" transform="translate(2987.03 3582.63) rotate(180)"/>
    <rect x="1500.51" y="1770.33" width="13.99" height="13.99" transform="translate(3015.01 3554.65) rotate(180)"/>
    <rect x="1486.52" y="1756.34" width="13.99" height="13.99" transform="translate(2987.03 3526.67) rotate(180)"/>
    <rect x="1500.51" y="1742.35" width="13.99" height="13.99" transform="translate(3015.01 3498.69) rotate(180)"/>
    <rect x="1486.52" y="1728.36" width="13.99" height="13.99" transform="translate(2987.03 3470.71) rotate(180)"/>
    <rect x="1500.51" y="1714.37" width="13.99" height="13.99" transform="translate(3015.01 3442.73) rotate(180)"/>
    <rect x="1486.52" y="1700.38" width="13.99" height="13.99" transform="translate(2987.03 3414.76) rotate(180)"/>
    <rect x="1500.51" y="1686.39" width="13.99" height="13.99" transform="translate(3015.01 3386.78) rotate(180)"/>
    <rect x="1486.52" y="1672.4" width="13.99" height="13.99" transform="translate(2987.03 3358.8) rotate(180)"/>
  </g>
  <g>
    <line class="cls-3" x1="1337.57" y1="1937.67" x2="1614.22" y2="1937.67"/>
    <polygon class="cls-5" points="1663.45 1937.67 1594.08 1966.01 1610.54 1937.67 1594.08 1909.33 1663.45 1937.67"/>
  </g>
  <g>
    <path d="M590.37,1232.56c3.36,0,6.22.49,8.57,1.47,2.36.98,4.27,2.27,5.75,3.87,1.48,1.6,2.56,3.43,3.23,5.49.68,2.06,1.02,4.19,1.02,6.39s-.34,4.27-1.02,6.35c-.68,2.08-1.76,3.92-3.23,5.53-1.48,1.6-3.4,2.89-5.75,3.87-2.36.98-5.21,1.47-8.57,1.47h-12.41v19.25h-11.81v-53.69h24.21ZM587.14,1257.82c1.35,0,2.66-.1,3.91-.3,1.25-.2,2.36-.59,3.31-1.17.95-.58,1.72-1.39,2.29-2.44.58-1.05.86-2.43.86-4.14s-.29-3.08-.86-4.14c-.58-1.05-1.34-1.87-2.29-2.44-.95-.58-2.06-.96-3.31-1.17-1.25-.2-2.56-.3-3.91-.3h-9.17v16.09h9.17Z"/>
    <path d="M628.12,1232.56v53.69h-11.81v-53.69h11.81Z"/>
    <path d="M634.28,1242.48v-9.93h43.99v9.93h-16.09v43.76h-11.81v-43.76h-16.09Z"/>
  </g>
  <polygon points="659.49 1339.51 590.12 1367.86 606.58 1339.51 590.12 1311.17 659.49 1339.51"/>
</svg>