<svg xmlns="http://www.w3.org/2000/svg" version="1.1" viewBox="0 0 3000 2261.3">
  <defs>
    <style>
      .cls-1 {
        fill: #010101;
      }

      .cls-2 {
        fill: #ee302d;
      }

      .cls-3 {
        stroke: #ee302d;
        stroke-width: 13.9px;
      }

      .cls-3, .cls-4 {
        fill: none;
      }

      .cls-3, .cls-4, .cls-5 {
        stroke-miterlimit: 10;
      }

      .cls-6, .cls-7 {
        isolation: isolate;
      }

      .cls-7 {
        fill: #c4c4c4;
        opacity: .6;
      }

      .cls-8, .cls-5 {
        fill: #fff;
      }

      .cls-4 {
        stroke-width: 3px;
      }

      .cls-4, .cls-5 {
        stroke: #010101;
      }

      .cls-5 {
        stroke-width: 5px;
      }
    </style>
  </defs>
  <!-- Generator: Adobe Illustrator 28.7.1, SVG Export Plug-In . SVG Version: 1.2.0 Build 142)  -->
  <g>
    <g id="Layer_1">
      <polygon class="cls-2" points="2799.1 2164.7 2832.4 2058.1 2849.4 2103.9 2897.5 2111.9 2799.1 2164.7"/>
      <g>
        <circle class="cls-5" cx="2834.5" cy="1322.1" r="64.2"/>
        <g class="cls-6">
          <g class="cls-6">
            <path d="M2834.7,1347.8v-34.1h-13.2v-8c1.9,0,3.6,0,5.4-.4,1.7-.3,3.3-.9,4.7-1.7,1.4-.8,2.5-1.9,3.5-3.3,1-1.4,1.6-3,1.9-5h8.5v52.6h-10.7Z"/>
          </g>
        </g>
      </g>
      <g>
        <circle class="cls-5" cx="2834.5" cy="312" r="64.2"/>
        <g class="cls-6">
          <g class="cls-6">
            <path d="M2818.8,296.9c.8-2.6,2-4.8,3.6-6.8,1.6-1.9,3.6-3.4,6.1-4.5,2.4-1.1,5.2-1.6,8.4-1.6s4.7.4,6.9,1.1c2.2.8,4.1,1.8,5.8,3.2s3,3.1,3.9,5.2c1,2.1,1.5,4.4,1.5,6.9s-.4,4.9-1.3,6.8c-.9,1.9-2,3.6-3.4,5.1-1.4,1.5-3,2.8-4.8,4-1.8,1.2-3.6,2.4-5.4,3.6-1.8,1.2-3.6,2.4-5.3,3.8-1.7,1.4-3.2,2.9-4.5,4.7h24.9v9.2h-38.6c0-3.1.4-5.7,1.3-8,.9-2.3,2.1-4.3,3.6-6.1s3.3-3.4,5.3-4.9c2-1.5,4.2-3,6.4-4.6,1.2-.8,2.4-1.6,3.7-2.4,1.3-.8,2.5-1.7,3.6-2.7,1.1-1,2-2.1,2.7-3.4.7-1.3,1.1-2.7,1.1-4.3,0-2.6-.7-4.5-2.2-6-1.5-1.4-3.4-2.1-5.7-2.1s-2.9.4-3.9,1.1c-1.1.7-1.9,1.7-2.6,2.9-.7,1.2-1.1,2.5-1.4,3.9s-.4,2.8-.4,4.2h-10.2c-.1-3,.2-5.8,1.1-8.4Z"/>
          </g>
        </g>
      </g>
      <g>
        <circle class="cls-5" cx="166.8" cy="312" r="64.2"/>
        <g class="cls-6">
          <g class="cls-6">
            <path d="M167.8,306.3c1.3,0,2.5-.4,3.6-.9,1.1-.5,2.1-1.2,2.8-2.1.7-.9,1.1-2.1,1.1-3.6,0-2.3-.8-4-2.3-5.2s-3.2-1.8-5.2-1.8-4.8.9-6.1,2.7c-1.4,1.8-2,4-2,6.7h-10.2c0-2.7.6-5.2,1.5-7.4.9-2.2,2.1-4.1,3.7-5.8s3.5-2.8,5.7-3.7c2.2-.9,4.7-1.3,7.4-1.3s4.2.3,6.3.9c2.1.6,4,1.6,5.7,2.8,1.7,1.3,3,2.8,4.1,4.6s1.6,3.9,1.6,6.2-.6,4.8-1.8,6.8c-1.2,2-3.1,3.3-5.5,4v.2c2.9.7,5.2,2.1,6.8,4.2,1.7,2.2,2.5,4.7,2.5,7.7s-.5,5.2-1.6,7.4c-1.1,2.2-2.5,4-4.3,5.4-1.8,1.5-3.9,2.6-6.2,3.3-2.4.8-4.8,1.1-7.4,1.1s-5.7-.4-8.1-1.3c-2.4-.9-4.5-2.1-6.2-3.7-1.7-1.6-3-3.6-3.9-6-.9-2.4-1.4-5.1-1.3-8.1h10.2c0,1.4.3,2.7.7,4,.4,1.3,1,2.4,1.7,3.3.8.9,1.7,1.7,2.8,2.2,1.1.6,2.5.8,4,.8,2.4,0,4.4-.7,6.1-2.2,1.7-1.5,2.5-3.5,2.5-6.1s-.4-3.5-1.2-4.6c-.8-1.1-1.8-1.8-3-2.3-1.2-.5-2.5-.8-3.9-.8s-2.8-.1-4.1-.1v-7.5c1.2.1,2.4.1,3.7,0Z"/>
          </g>
        </g>
      </g>
      <g>
        <circle class="cls-5" cx="166.8" cy="1322.1" r="64.2"/>
        <g class="cls-6">
          <g class="cls-6">
            <path d="M147.1,1335.6v-9.8l22.9-30.7h9.5v31.7h7v8.8h-7v12.2h-10.2v-12.2h-22.3ZM169.1,1308.6l-13.6,18.3h13.8v-18.3h-.2Z"/>
          </g>
        </g>
      </g>
      <path d="M2711,2066.8l37.2,59.9h.2v-59.9h18.4v89.2h-19.6l-37.1-59.8h-.2v59.8h-18.4v-89.2h19.5,0Z"/>
      <g class="cls-6">
        <g class="cls-6">
          <path d="M703,2070.9v72.8h43.5v16.5h-63.1v-89.2h19.6Z"/>
          <path d="M754.8,2115.4c.2-4.2,1.3-7.6,3.1-10.4,1.8-2.8,4.2-5,7-6.6,2.8-1.7,6-2.9,9.6-3.6,3.5-.7,7.1-1.1,10.7-1.1s6.5.2,9.9.7c3.3.5,6.4,1.4,9.1,2.7,2.8,1.3,5,3.2,6.8,5.6s2.6,5.5,2.6,9.4v33.6c0,2.9.2,5.7.5,8.4.3,2.7.9,4.7,1.8,6h-18c-.3-1-.6-2-.8-3.1-.2-1-.4-2.1-.4-3.2-2.8,2.9-6.2,5-10,6.1-3.8,1.2-7.8,1.8-11.8,1.8s-6-.4-8.6-1.1c-2.7-.8-5-1.9-7-3.5-2-1.6-3.6-3.6-4.7-6-1.1-2.4-1.7-5.3-1.7-8.6s.6-6.7,1.9-9.1c1.3-2.4,3-4.3,5-5.7,2-1.4,4.4-2.5,7-3.2,2.6-.7,5.3-1.3,7.9-1.7,2.7-.4,5.3-.8,7.9-1,2.6-.2,4.9-.6,6.9-1.1s3.6-1.2,4.8-2.2c1.2-1,1.7-2.4,1.6-4.2,0-1.9-.3-3.4-.9-4.6s-1.5-2-2.5-2.6c-1-.6-2.2-1-3.6-1.2-1.4-.2-2.9-.3-4.4-.3-3.5,0-6.2.8-8.2,2.2s-3.2,4-3.5,7.5h-17.8ZM795.8,2128.5c-.8.7-1.7,1.2-2.8,1.6s-2.3.7-3.6.9c-1.3.2-2.6.5-4.1.6-1.4.2-2.8.4-4.2.6-1.3.2-2.6.6-3.9,1-1.3.4-2.4,1-3.4,1.7-1,.7-1.7,1.6-2.3,2.7-.6,1.1-.9,2.5-.9,4.1s.3,2.9.9,4c.6,1.1,1.4,1.9,2.4,2.6s2.2,1.1,3.5,1.3c1.3.2,2.7.4,4.1.4,3.5,0,6.2-.6,8.1-1.8,1.9-1.2,3.3-2.6,4.2-4.2.9-1.6,1.5-3.3,1.7-4.9.2-1.7.3-3,.3-4v-6.6Z"/>
          <path d="M842.3,2144.1c.8,1.4,1.8,2.5,3.1,3.4s2.7,1.5,4.3,1.9c1.6.4,3.3.6,5.1.6s2.6-.1,3.9-.4c1.4-.3,2.6-.8,3.8-1.4s2.1-1.5,2.8-2.5c.8-1,1.1-2.4,1.1-3.9,0-2.7-1.8-4.7-5.3-6-3.5-1.3-8.5-2.7-14.8-4-2.6-.6-5.1-1.3-7.6-2.1-2.5-.8-4.6-1.8-6.6-3.1-1.9-1.3-3.5-2.9-4.6-4.9-1.2-2-1.8-4.4-1.8-7.2,0-4.2.8-7.6,2.4-10.2,1.6-2.7,3.8-4.8,6.4-6.3,2.7-1.5,5.7-2.6,9-3.2,3.3-.6,6.8-.9,10.2-.9s6.9.3,10.2,1c3.3.7,6.2,1.8,8.8,3.4,2.6,1.6,4.7,3.7,6.4,6.3,1.7,2.6,2.7,5.9,3.1,9.9h-16.9c-.2-3.4-1.5-5.7-3.9-6.9-2.3-1.2-5.1-1.8-8.2-1.8s-2.1,0-3.2.2c-1.2.1-2.2.4-3.2.8-1,.4-1.8,1-2.4,1.8-.7.8-1,1.9-1,3.2s.6,2.9,1.8,3.9c1.2,1,2.7,1.8,4.6,2.4s4,1.2,6.4,1.7c2.4.5,4.9,1,7.4,1.6,2.6.6,5.1,1.3,7.6,2.1,2.5.8,4.6,1.9,6.6,3.3,1.9,1.4,3.5,3.1,4.6,5.1,1.2,2,1.8,4.6,1.8,7.6,0,4.2-.9,7.8-2.6,10.7-1.7,2.9-3.9,5.2-6.7,6.9s-5.9,3-9.4,3.7c-3.5.7-7.1,1.1-10.8,1.1s-7.4-.4-11-1.1c-3.6-.8-6.8-2-9.6-3.8-2.8-1.8-5.1-4.1-6.9-6.9-1.8-2.9-2.8-6.5-2.9-10.8h16.9c0,1.9.4,3.6,1.2,4.9Z"/>
        </g>
        <g class="cls-6">
          <path d="M950.5,2160.1l-28.9-89.2h20.1l19.9,62.8h.2l20.1-62.8h20.2l-29.6,89.2h-22.1Z"/>
        </g>
        <g class="cls-6">
          <path d="M1020.1,2144.6c2.7,2.6,6.5,3.9,11.5,3.9s6.7-.9,9.2-2.7c2.6-1.8,4.2-3.7,4.8-5.7h15.6c-2.5,7.8-6.3,13.3-11.5,16.6-5.2,3.3-11.4,5-18.8,5s-9.7-.8-13.8-2.4c-4.1-1.6-7.5-3.9-10.4-6.9-2.8-3-5-6.6-6.6-10.8-1.5-4.2-2.3-8.8-2.3-13.8s.8-9.3,2.4-13.5c1.6-4.2,3.8-7.8,6.8-10.8,2.9-3,6.4-5.4,10.4-7.2,4-1.8,8.5-2.6,13.4-2.6s10.3,1.1,14.4,3.2c4.1,2.1,7.4,5,10.1,8.6,2.6,3.6,4.5,7.7,5.7,12.2,1.2,4.6,1.6,9.4,1.2,14.4h-46.6c.2,5.8,1.7,9.9,4.4,12.5ZM1040.1,2110.6c-2.1-2.3-5.4-3.5-9.7-3.5s-5.2.5-7.1,1.4c-1.9,1-3.4,2.1-4.5,3.6-1.1,1.4-1.9,2.9-2.4,4.5-.5,1.6-.7,3-.8,4.2h28.9c-.8-4.5-2.3-7.9-4.4-10.2Z"/>
          <path d="M1133.9,2164.9c-.7,3.3-2.2,6.4-4.6,9.3-2.3,2.9-5.7,5.3-10.1,7.3-4.4,2-10.3,3-17.8,3s-6.4-.4-9.7-1.2c-3.3-.8-6.3-2-9-3.7-2.7-1.7-5-3.8-6.8-6.4-1.8-2.6-2.8-5.8-3.1-9.4h17.6c.8,3.3,2.5,5.6,4.9,6.9,2.4,1.3,5.2,1.9,8.4,1.9,5,0,8.6-1.5,10.9-4.5,2.3-3,3.4-6.8,3.3-11.4v-8.5h-.2c-1.9,3.4-4.6,5.9-8.2,7.6-3.5,1.6-7.3,2.4-11.2,2.4s-9-.9-12.5-2.6c-3.5-1.7-6.4-4-8.6-7-2.2-3-3.9-6.4-4.9-10.4-1-4-1.6-8.1-1.6-12.6s.6-8.2,1.8-12.1c1.2-3.9,3-7.3,5.3-10.2,2.3-3,5.2-5.3,8.7-7.1,3.5-1.8,7.4-2.6,11.9-2.6s8,.8,11.2,2.4c3.2,1.6,5.9,4.2,8.1,8h.2v-8.6h16.9v60.5c0,2.6-.4,5.5-1.1,8.9ZM1109.6,2143.4c1.9-1,3.5-2.3,4.8-4,1.2-1.7,2.2-3.6,2.8-5.7s.9-4.4.9-6.7-.2-5.2-.8-7.6-1.3-4.5-2.5-6.3c-1.2-1.8-2.7-3.3-4.6-4.4-1.9-1.1-4.3-1.6-7.2-1.6s-4.6.5-6.4,1.5c-1.8,1-3.3,2.4-4.5,4.1-1.2,1.7-2.1,3.7-2.6,5.9-.5,2.2-.8,4.5-.8,6.9s.2,4.6.7,6.9c.5,2.3,1.2,4.4,2.4,6.2,1.1,1.8,2.6,3.3,4.4,4.5,1.8,1.2,4.1,1.8,6.9,1.8s4.7-.5,6.6-1.5Z"/>
          <path d="M1148.4,2115.4c.2-4.2,1.3-7.6,3.1-10.4,1.8-2.8,4.2-5,7-6.6,2.8-1.7,6-2.9,9.6-3.6,3.5-.7,7.1-1.1,10.7-1.1s6.5.2,9.9.7c3.3.5,6.4,1.4,9.1,2.7,2.8,1.3,5,3.2,6.8,5.6s2.6,5.5,2.6,9.4v33.6c0,2.9.2,5.7.5,8.4.3,2.7.9,4.7,1.8,6h-18c-.3-1-.6-2-.8-3.1-.2-1-.4-2.1-.4-3.2-2.8,2.9-6.2,5-10,6.1-3.8,1.2-7.8,1.8-11.8,1.8s-6-.4-8.6-1.1c-2.7-.8-5-1.9-7-3.5-2-1.6-3.6-3.6-4.7-6-1.1-2.4-1.7-5.3-1.7-8.6s.6-6.7,1.9-9.1c1.3-2.4,3-4.3,5-5.7,2-1.4,4.4-2.5,7-3.2,2.6-.7,5.3-1.3,7.9-1.7,2.7-.4,5.3-.8,7.9-1,2.6-.2,4.9-.6,6.9-1.1s3.6-1.2,4.8-2.2c1.2-1,1.7-2.4,1.6-4.2,0-1.9-.3-3.4-.9-4.6s-1.5-2-2.5-2.6c-1-.6-2.2-1-3.6-1.2-1.4-.2-2.9-.3-4.4-.3-3.5,0-6.2.8-8.2,2.2s-3.2,4-3.5,7.5h-17.8ZM1189.4,2128.5c-.8.7-1.7,1.2-2.8,1.6s-2.3.7-3.6.9c-1.3.2-2.6.5-4.1.6-1.4.2-2.8.4-4.2.6-1.3.2-2.6.6-3.9,1-1.3.4-2.4,1-3.4,1.7-1,.7-1.7,1.6-2.3,2.7-.6,1.1-.9,2.5-.9,4.1s.3,2.9.9,4c.6,1.1,1.4,1.9,2.4,2.6s2.2,1.1,3.5,1.3c1.3.2,2.7.4,4.1.4,3.5,0,6.2-.6,8.1-1.8,1.9-1.2,3.3-2.6,4.2-4.2.9-1.6,1.5-3.3,1.7-4.9.2-1.7.3-3,.3-4v-6.6Z"/>
          <path d="M1235.9,2144.1c.8,1.4,1.8,2.5,3.1,3.4s2.7,1.5,4.3,1.9c1.6.4,3.3.6,5.1.6s2.6-.1,3.9-.4c1.4-.3,2.6-.8,3.8-1.4s2.1-1.5,2.8-2.5c.8-1,1.1-2.4,1.1-3.9,0-2.7-1.8-4.7-5.3-6-3.5-1.3-8.5-2.7-14.8-4-2.6-.6-5.1-1.3-7.6-2.1-2.5-.8-4.6-1.8-6.6-3.1-1.9-1.3-3.5-2.9-4.6-4.9-1.2-2-1.8-4.4-1.8-7.2,0-4.2.8-7.6,2.4-10.2,1.6-2.7,3.8-4.8,6.4-6.3,2.7-1.5,5.7-2.6,9-3.2,3.3-.6,6.8-.9,10.2-.9s6.9.3,10.2,1c3.3.7,6.2,1.8,8.8,3.4,2.6,1.6,4.7,3.7,6.4,6.3,1.7,2.6,2.7,5.9,3.1,9.9h-16.9c-.2-3.4-1.5-5.7-3.9-6.9-2.3-1.2-5.1-1.8-8.2-1.8s-2.1,0-3.2.2c-1.2.1-2.2.4-3.2.8-1,.4-1.8,1-2.4,1.8-.7.8-1,1.9-1,3.2s.6,2.9,1.8,3.9c1.2,1,2.7,1.8,4.6,2.4s4,1.2,6.4,1.7c2.4.5,4.9,1,7.4,1.6,2.6.6,5.1,1.3,7.6,2.1,2.5.8,4.6,1.9,6.6,3.3,1.9,1.4,3.5,3.1,4.6,5.1,1.2,2,1.8,4.6,1.8,7.6,0,4.2-.9,7.8-2.6,10.7-1.7,2.9-3.9,5.2-6.7,6.9s-5.9,3-9.4,3.7c-3.5.7-7.1,1.1-10.8,1.1s-7.4-.4-11-1.1c-3.6-.8-6.8-2-9.6-3.8-2.8-1.8-5.1-4.1-6.9-6.9-1.8-2.9-2.8-6.5-2.9-10.8h16.9c0,1.9.4,3.6,1.2,4.9Z"/>
          <path d="M1352.3,2070.9l20.9,61.4h.2l19.8-61.4h27.6v89.2h-18.4v-63.2h-.2l-21.9,63.2h-15.1l-21.9-62.6h-.2v62.6h-18.4v-89.2h27.6Z"/>
          <path d="M1436.6,2113.8c1.6-4.2,3.8-7.8,6.8-10.8,2.9-3,6.4-5.2,10.5-6.9,4.1-1.6,8.7-2.4,13.8-2.4s9.7.8,13.8,2.4,7.6,3.9,10.6,6.9c2.9,3,5.2,6.5,6.8,10.8,1.6,4.2,2.4,8.9,2.4,14.1s-.8,9.8-2.4,14c-1.6,4.2-3.8,7.7-6.8,10.7-2.9,3-6.4,5.2-10.6,6.8s-8.7,2.4-13.8,2.4-9.7-.8-13.8-2.4c-4.1-1.6-7.6-3.9-10.5-6.8-2.9-3-5.2-6.5-6.8-10.7-1.6-4.2-2.4-8.8-2.4-14s.8-9.9,2.4-14.1ZM1452.7,2135.4c.5,2.5,1.4,4.7,2.6,6.6,1.2,2,2.8,3.5,4.8,4.7,2,1.2,4.5,1.8,7.5,1.8s5.5-.6,7.6-1.8c2-1.2,3.7-2.7,4.9-4.7,1.2-2,2.1-4.2,2.6-6.6.5-2.5.8-5,.8-7.6s-.2-5.1-.8-7.6-1.4-4.7-2.6-6.6c-1.2-1.9-2.8-3.5-4.9-4.7-2-1.2-4.6-1.8-7.6-1.8s-5.5.6-7.5,1.8c-2,1.2-3.6,2.8-4.8,4.7-1.2,1.9-2.1,4.1-2.6,6.6s-.8,5-.8,7.6.2,5.1.8,7.6Z"/>
          <path d="M1548.1,2095.5v11.9h-13v32c0,3,.5,5,1.5,6s3,1.5,6,1.5,2,0,2.9-.1c.9,0,1.8-.2,2.6-.4v13.8c-1.5.2-3.2.4-5,.5-1.8,0-3.6.1-5.4.1-2.8,0-5.4-.2-7.8-.6-2.5-.4-4.6-1.1-6.5-2.2-1.9-1.1-3.4-2.6-4.4-4.6-1.1-2-1.6-4.6-1.6-7.9v-38.1h-10.8v-11.9h10.8v-19.4h17.8v19.4h13Z"/>
          <path d="M1556.9,2113.8c1.6-4.2,3.8-7.8,6.8-10.8,2.9-3,6.4-5.2,10.5-6.9,4.1-1.6,8.7-2.4,13.8-2.4s9.7.8,13.8,2.4,7.6,3.9,10.6,6.9c2.9,3,5.2,6.5,6.8,10.8,1.6,4.2,2.4,8.9,2.4,14.1s-.8,9.8-2.4,14c-1.6,4.2-3.8,7.7-6.8,10.7-2.9,3-6.4,5.2-10.6,6.8s-8.7,2.4-13.8,2.4-9.7-.8-13.8-2.4c-4.1-1.6-7.6-3.9-10.5-6.8-2.9-3-5.2-6.5-6.8-10.7-1.6-4.2-2.4-8.8-2.4-14s.8-9.9,2.4-14.1ZM1573.1,2135.4c.5,2.5,1.4,4.7,2.6,6.6,1.2,2,2.8,3.5,4.8,4.7,2,1.2,4.5,1.8,7.5,1.8s5.5-.6,7.6-1.8c2-1.2,3.7-2.7,4.9-4.7,1.2-2,2.1-4.2,2.6-6.6.5-2.5.8-5,.8-7.6s-.2-5.1-.8-7.6-1.4-4.7-2.6-6.6c-1.2-1.9-2.8-3.5-4.9-4.7-2-1.2-4.6-1.8-7.6-1.8s-5.5.6-7.5,1.8c-2,1.2-3.6,2.8-4.8,4.7-1.2,1.9-2.1,4.1-2.6,6.6s-.8,5-.8,7.6.2,5.1.8,7.6Z"/>
          <path d="M1649.8,2095.5v12h.2c.8-2,2-3.9,3.4-5.6,1.4-1.7,3-3.2,4.9-4.4,1.8-1.2,3.8-2.1,5.9-2.8,2.1-.7,4.2-1,6.5-1s2.5.2,3.9.6v16.5c-.8-.2-1.8-.3-3-.4-1.2-.1-2.3-.2-3.4-.2-3.2,0-6,.5-8.2,1.6-2.2,1.1-4.1,2.6-5.4,4.4s-2.4,4.1-2.9,6.6c-.6,2.5-.9,5.2-.9,8.1v29.1h-17.8v-64.6h16.9Z"/>
          <path d="M1733.2,2138.1c1.1,2.1,2.5,3.8,4.3,5.1,1.8,1.3,3.9,2.2,6.3,2.9,2.4.6,4.9.9,7.5.9s3.6-.1,5.6-.4c2-.3,3.9-.9,5.6-1.7,1.8-.8,3.2-2,4.4-3.4,1.2-1.5,1.8-3.3,1.8-5.6s-.8-4.4-2.3-5.9c-1.5-1.5-3.6-2.8-6.1-3.8s-5.3-1.9-8.5-2.6c-3.2-.8-6.4-1.6-9.6-2.5-3.3-.8-6.6-1.9-9.8-3.1-3.2-1.2-6-2.8-8.5-4.7-2.5-1.9-4.5-4.3-6.1-7.2-1.5-2.9-2.3-6.4-2.3-10.4s1-8.6,2.9-11.9c2-3.4,4.5-6.2,7.7-8.4,3.2-2.2,6.8-3.9,10.8-5,4-1.1,8-1.6,12-1.6s9.1.5,13.4,1.6c4.3,1,8.1,2.7,11.4,5.1,3.3,2.3,6,5.3,7.9,8.9,2,3.6,2.9,8,2.9,13.2h-19c-.2-2.7-.7-4.9-1.7-6.6-1-1.8-2.2-3.1-3.8-4.1-1.6-1-3.4-1.7-5.4-2.1-2-.4-4.3-.6-6.7-.6s-3.2.2-4.8.5c-1.6.3-3,.9-4.3,1.8-1.3.8-2.4,1.9-3.2,3.1-.8,1.2-1.2,2.8-1.2,4.8s.3,3.2,1,4.2c.7,1.1,2,2.1,3.9,3,2,.9,4.7,1.8,8.1,2.8,3.5.9,8,2.1,13.6,3.5,1.7.3,4,.9,6.9,1.8,3,.9,5.9,2.3,8.8,4.2,2.9,1.9,5.4,4.5,7.6,7.7,2.1,3.2,3.2,7.3,3.2,12.3s-.8,7.9-2.4,11.4c-1.6,3.5-3.9,6.5-7.1,9.1-3.1,2.5-7,4.5-11.6,5.9s-10,2.1-16.1,2.1-9.7-.6-14.3-1.8-8.7-3.1-12.2-5.7c-3.5-2.6-6.4-5.9-8.4-9.9-2.1-4-3.1-8.8-3-14.2h19c0,3,.5,5.5,1.6,7.6Z"/>
          <path d="M1814.3,2095.5v8.2h.2c2.2-3.5,4.9-6,8.2-7.6,3.3-1.6,7-2.4,11-2.4s9.5,1,13.1,2.9c3.7,1.9,6.7,4.5,9.1,7.6,2.4,3.2,4.2,6.9,5.4,11.1,1.2,4.2,1.8,8.6,1.8,13.2s-.6,8.5-1.8,12.5c-1.2,4-2.9,7.5-5.3,10.6-2.4,3.1-5.3,5.5-8.9,7.4-3.5,1.8-7.7,2.8-12.4,2.8s-7.7-.8-11.1-2.4-6.1-4-8.3-7.2h-.2v30.6h-17.8v-87.2h16.9ZM1837.4,2146.7c2-1.2,3.5-2.7,4.8-4.6,1.2-1.9,2.1-4.1,2.6-6.6s.8-5,.8-7.6-.3-5.1-.8-7.6c-.5-2.5-1.4-4.7-2.7-6.7-1.2-2-2.9-3.5-4.8-4.8-2-1.2-4.4-1.8-7.2-1.8s-5.4.6-7.3,1.8c-2,1.2-3.5,2.8-4.8,4.7-1.2,1.9-2.1,4.1-2.6,6.6s-.8,5.1-.8,7.8.3,5.1.8,7.6c.5,2.5,1.4,4.7,2.6,6.6,1.2,1.9,2.8,3.4,4.8,4.6,2,1.2,4.4,1.8,7.2,1.8s5.4-.6,7.3-1.8Z"/>
          <path d="M1892.8,2144.6c2.7,2.6,6.5,3.9,11.5,3.9s6.7-.9,9.2-2.7c2.6-1.8,4.2-3.7,4.8-5.7h15.6c-2.5,7.8-6.3,13.3-11.5,16.6-5.2,3.3-11.4,5-18.8,5s-9.7-.8-13.8-2.4c-4.1-1.6-7.5-3.9-10.4-6.9-2.8-3-5-6.6-6.6-10.8-1.5-4.2-2.3-8.8-2.3-13.8s.8-9.3,2.4-13.5c1.6-4.2,3.8-7.8,6.8-10.8,2.9-3,6.4-5.4,10.4-7.2,4-1.8,8.5-2.6,13.4-2.6s10.3,1.1,14.4,3.2c4.1,2.1,7.4,5,10.1,8.6,2.6,3.6,4.5,7.7,5.7,12.2,1.2,4.6,1.6,9.4,1.2,14.4h-46.6c.2,5.8,1.7,9.9,4.4,12.5ZM1912.9,2110.6c-2.1-2.3-5.4-3.5-9.7-3.5s-5.2.5-7.1,1.4c-1.9,1-3.4,2.1-4.5,3.6-1.1,1.4-1.9,2.9-2.4,4.5-.5,1.6-.7,3-.8,4.2h28.9c-.8-4.5-2.3-7.9-4.4-10.2Z"/>
          <path d="M1964.6,2144.6c2.7,2.6,6.5,3.9,11.5,3.9s6.7-.9,9.2-2.7c2.6-1.8,4.2-3.7,4.8-5.7h15.6c-2.5,7.8-6.3,13.3-11.5,16.6-5.2,3.3-11.4,5-18.8,5s-9.7-.8-13.8-2.4c-4.1-1.6-7.5-3.9-10.4-6.9-2.8-3-5-6.6-6.6-10.8-1.5-4.2-2.3-8.8-2.3-13.8s.8-9.3,2.4-13.5c1.6-4.2,3.8-7.8,6.8-10.8,2.9-3,6.4-5.4,10.4-7.2,4-1.8,8.5-2.6,13.4-2.6s10.3,1.1,14.4,3.2c4.1,2.1,7.4,5,10.1,8.6,2.6,3.6,4.5,7.7,5.7,12.2,1.2,4.6,1.6,9.4,1.2,14.4h-46.6c.2,5.8,1.7,9.9,4.4,12.5ZM1984.6,2110.6c-2.1-2.3-5.4-3.5-9.7-3.5s-5.2.5-7.1,1.4c-1.9,1-3.4,2.1-4.5,3.6-1.1,1.4-1.9,2.9-2.4,4.5-.5,1.6-.7,3-.8,4.2h28.9c-.8-4.5-2.3-7.9-4.4-10.2Z"/>
          <path d="M2063.2,2151.9c-2.1,3.5-4.8,6-8.2,7.6s-7.2,2.3-11.4,2.3-9.1-.9-12.8-2.8c-3.7-1.9-6.7-4.4-9.1-7.6-2.4-3.2-4.2-6.9-5.4-11.1-1.2-4.2-1.8-8.5-1.8-13s.6-8.5,1.8-12.6c1.2-4,3-7.6,5.4-10.7,2.4-3.1,5.4-5.6,8.9-7.4,3.6-1.9,7.8-2.8,12.5-2.8s7.5.8,10.9,2.4c3.5,1.6,6.2,4,8.2,7.2h.2v-32.5h17.8v89.2h-16.9v-8.2h-.2ZM2062.4,2119.9c-.5-2.5-1.4-4.6-2.6-6.5-1.2-1.9-2.8-3.4-4.7-4.6-1.9-1.2-4.3-1.8-7.2-1.8s-5.4.6-7.4,1.8c-2,1.2-3.6,2.7-4.8,4.6-1.2,1.9-2.1,4.1-2.6,6.6-.5,2.5-.8,5-.8,7.7s.3,5,.9,7.5c.6,2.5,1.5,4.7,2.8,6.7,1.3,2,2.9,3.5,4.9,4.8,2,1.2,4.3,1.8,7.1,1.8s5.4-.6,7.3-1.8c2-1.2,3.5-2.7,4.7-4.7,1.2-2,2-4.2,2.5-6.7s.8-5.1.8-7.8-.2-5.2-.8-7.7Z"/>
          <path d="M2149.3,2160.1l-11.5-43.4h-.2l-11,43.4h-18.4l-20.5-64.6h18.8l11.9,43.9h.2l10.8-43.9h17.2l11,43.8h.2l11.9-43.8h18.2l-20.4,64.6h-18.2Z"/>
          <path d="M2194.7,2115.4c.2-4.2,1.3-7.6,3.1-10.4,1.8-2.8,4.2-5,7-6.6,2.8-1.7,6-2.9,9.6-3.6,3.5-.7,7.1-1.1,10.7-1.1s6.5.2,9.9.7c3.3.5,6.4,1.4,9.1,2.7,2.8,1.3,5,3.2,6.8,5.6s2.6,5.5,2.6,9.4v33.6c0,2.9.2,5.7.5,8.4.3,2.7.9,4.7,1.8,6h-18c-.3-1-.6-2-.8-3.1-.2-1-.4-2.1-.4-3.2-2.8,2.9-6.2,5-10,6.1-3.8,1.2-7.8,1.8-11.8,1.8s-6-.4-8.6-1.1c-2.7-.8-5-1.9-7-3.5-2-1.6-3.6-3.6-4.7-6-1.1-2.4-1.7-5.3-1.7-8.6s.6-6.7,1.9-9.1c1.3-2.4,3-4.3,5-5.7,2-1.4,4.4-2.5,7-3.2,2.6-.7,5.3-1.3,7.9-1.7,2.7-.4,5.3-.8,7.9-1,2.6-.2,4.9-.6,6.9-1.1s3.6-1.2,4.8-2.2c1.2-1,1.7-2.4,1.6-4.2,0-1.9-.3-3.4-.9-4.6s-1.5-2-2.5-2.6c-1-.6-2.2-1-3.6-1.2-1.4-.2-2.9-.3-4.4-.3-3.5,0-6.2.8-8.2,2.2s-3.2,4-3.5,7.5h-17.8ZM2235.7,2128.5c-.8.7-1.7,1.2-2.8,1.6s-2.3.7-3.6.9c-1.3.2-2.6.5-4.1.6-1.4.2-2.8.4-4.2.6-1.3.2-2.6.6-3.9,1-1.3.4-2.4,1-3.4,1.7-1,.7-1.7,1.6-2.3,2.7-.6,1.1-.9,2.5-.9,4.1s.3,2.9.9,4c.6,1.1,1.4,1.9,2.4,2.6s2.2,1.1,3.5,1.3c1.3.2,2.7.4,4.1.4,3.5,0,6.2-.6,8.1-1.8,1.9-1.2,3.3-2.6,4.2-4.2.9-1.6,1.5-3.3,1.7-4.9.2-1.7.3-3,.3-4v-6.6Z"/>
          <path d="M2291.1,2179.4c-3.4,2.2-8.2,3.4-14.2,3.4s-3.6,0-5.4-.2c-1.8-.1-3.6-.3-5.4-.4v-14.6c1.7.2,3.4.3,5.1.5,1.8.2,3.5.2,5.2.1,2.3-.2,4.1-1.2,5.2-2.8,1.1-1.6,1.7-3.3,1.7-5.2s-.2-2.8-.8-4l-22.6-60.6h18.9l14.6,44.2h.2l14.1-44.2h18.4l-27,72.6c-1.9,5.2-4.6,9-8,11.2Z"/>
        </g>
      </g>
      <path class="cls-1" d="M2856,579.9c-10.6-29.5-23.4-58.4-37.9-86.1-56.3-107.8-141-199.9-244.9-266.3-99.6-63.7-220.1-103.6-358.1-118.6-47.3-5.2-93.9-6.6-133.1-7.4-25.7-.5-51.7-.4-76.8-.3-10.9,0-21.8,0-32.7,0h-952.1c-10.8,0-21.6,0-32.4,0-24.9-.1-50.7-.2-76.1.3-38.9.8-85,2.3-131.9,7.4-136.8,15-256.2,55-354.9,118.7-102.9,66.4-186.9,158.5-242.6,266.3-14.4,27.7-27,56.7-37.5,86.1-40.4,113-52.2,233.2-34.1,347.6,5.6,35.5,14.1,70.8,25.2,104.9,10.9,33.5,24.5,66.6,40.4,98.1,15.7,31.2,33.9,61.4,54.2,90,20.1,28.3,42.5,55.5,66.6,80.6,43.8,45.7,95.3,86.1,153,120.2,30.5,18,62.1,34.6,92.7,50.7,10.7,5.6,21.4,11.2,32.1,16.9l214.7,114.4c9.3,4.9,18.5,9.9,27.8,14.9,41.2,22.2,83.8,45.1,128.3,64.2,54.2,23.3,110.9,43.6,168.5,60.2,73.5,21.3,148.3,36.6,222.3,45.6,52.7,6.4,105.8,9.7,157.9,9.7s106.1-3.2,159.3-9.6c74.7-9,150.1-24.3,224.3-45.6,58.1-16.7,115.3-36.9,170-60.2,44.9-19.1,87.9-42,129.5-64.2,9.3-5,18.6-9.9,28-14.9l216.7-114.4c10.8-5.7,21.6-11.3,32.4-16.9,30.9-16.1,62.8-32.7,93.5-50.7,58.2-34.1,110.1-74.5,154.4-120.2,24.3-25.2,47-52.3,67.2-80.6,20.4-28.6,38.8-58.9,54.7-90,16.1-31.6,29.8-64.6,40.7-98.1,11.2-34.1,19.7-69.5,25.4-105,18.4-114.5,6.5-234.7-34.4-347.7h0ZM2433.9,1432.7c-10.9,5.7-21.8,11.3-32.6,17.1l-216.7,114.4c-9.4,5-18.8,10-28.2,15-42.6,22.7-82.8,44.2-125.9,62.5-53,22.6-108.5,42.2-164.9,58.4-71.9,20.6-145,35.5-217.3,44.2-51.4,6.2-103.3,9.3-154,9.3s-101.6-3.1-152.5-9.3c-71.6-8.7-144.1-23.6-215.3-44.2-55.8-16.2-110.8-35.8-163.3-58.4-42.7-18.3-82.5-39.8-124.8-62.5-9.3-5-18.6-10-27.9-15l-214.7-114.4c-10.7-5.7-21.5-11.4-32.3-17.1-26.9-14.1-54.5-28.7-81.2-44.1,29.4,12.4,68.5,28.7,95.9,39,82.5,30.8,166.7,57.1,252.4,77.8,49,11.8,98.5,21.9,148.3,30.3,79.1,13.4,159,21.7,239.1,25.2,29.9,1.3,59.8,1.9,89.7,1.9h374.9c30.2,0,60.4-.6,90.6-1.9,80.9-3.6,161.5-11.9,241.4-25.2,50.2-8.4,100.2-18.5,149.7-30.3,86.5-20.6,171.5-47,254.8-77.8,27.6-10.2,66.9-26.4,96.4-38.8-26.8,15.3-54.5,29.8-81.5,43.8h0ZM2846.5,920.6c-5.3,33.2-13.3,66.2-23.8,98.2-10.3,31.4-23.1,62.3-38.1,91.8-17.8,34.9-39.7,69.1-66.9,98.1-29.7,31.8-66.2,56.2-103.3,78.7-6.2,3.8-12.4,7.5-18.7,11.2-.4.2-.7.4-1.1.7-25.1,14.9-50.6,29.1-76.7,42.3-77.6,39.5-160.7,69.2-245.4,89.9-87.9,21.5-177.2,38.1-266.6,52.7-90.8,14.8-182.6,23.5-274.6,26.3-36.2,1.1-72.4,1.3-108.6,1.3h-256c-35.9,0-71.7-.2-107.6-1.3-91.1-2.8-182.1-11.6-272-26.3-88.5-14.5-176.9-31.2-264.1-52.7-83.9-20.7-166.2-50.4-243.1-89.9-25.8-13.2-51.1-27.4-76-42.3-.4-.2-.7-.4-1.1-.7-6.2-3.7-12.3-7.4-18.5-11.2-33.6-20.5-67.2-43.7-95.9-71.6-31.3-30.4-53.2-66.4-72.7-105.2-14.9-29.6-27.6-60.4-37.8-91.8-10.4-32-18.3-65-23.6-98.2-17-107.1-5.9-219.7,32-325.7,9.9-27.6,21.7-54.7,35.1-80.7,52.2-100.9,130.8-187.2,227.3-249.4,92.9-59.9,205.9-97.6,335.7-111.8,45.2-5,90-6.4,128-7.2,14.2-.3,28.5-.4,42.7-.4s21.6,0,32.3.1c10.9,0,21.7.1,32.6.1h952.1c11,0,21.9,0,32.9-.1,24.9-.1,50.6-.2,75.7.3,38.3.8,83.6,2.2,129.2,7.2,131.1,14.3,245.1,51.9,339,111.9,97.4,62.2,176.7,148.4,229.4,249.4,13.6,26,25.5,53.1,35.5,80.7,38.3,105.9,49.4,218.5,32.3,325.6h0Z"/>
      <line class="cls-4" x1="1494.3" y1="1693.3" x2="1494.3" y2="1870.2"/>
      <path class="cls-7" d="M2288,492.6c-1.9-24.5-4.9-52.2-12.6-68.1,0,0,0-.1-.1-.2-4.8-12-11.6-23.5-20.1-33.5-18.7-22-45.9-37-74.6-41.1-1.5-.2-3.9-.6-6.6-1-6.7-1-11.7-1.8-14.8-2.2l-34.9-4.4-4.9-.6-44-5.5-55.5-6.9-27.2-3.4-27.2-3.4-46-5.7-9.9-1.2c-6.7-.8-13.3-1.7-20-2.5-8.6-1.1-17.3-1.6-25.8-1.6-30.2,0-59.1,6.9-83.4,20.1l-.5.3c-14.3,7.8-26.6,17-38.6,25.9-3.7,2.8-7.2,5.4-10.7,7.9l-38.3,27.6-46.6,33.5-23.5,17-23.5,17-39.8,28.7-11.5,8.3-7.3,5.2c-16.6,12-35.3,18.3-54,18.3s-18-1.5-26.6-4.5c-3-1.1-6-2.3-8.9-3.7-7.8-3.8-15.6-7.6-23.4-11.5-11.4-5.6-22.8-11.3-34.2-16.9-14.1-7-28.2-14-42.2-21-9.4-4.7-18.9-9.4-28.4-14.1-6.3-3.1-12.7-6.3-19-9.5-16.6-8.3-33.2-16.6-49.9-24.9-16.5-8.2-33-16.5-49.6-24.8-15.5-7.8-31-15.5-46.5-23.3l-40.7-20.4-32.2-16.1c-2.8-1.4-5.5-2.8-8.3-4.2-25.9-13.1-55.3-27.9-87.4-34.4-9-1.8-18.4-2.7-27.8-2.7h0c-15.1,0-30.2,2.3-44.9,6.8-16.7,5.1-36.1,12-53.4,24.5-14.5,10.5-25.8,23.2-35.8,35.4-8.2,10-16.8,21-23,34.9-6.7,15.2-9.2,30.8-11,44.3-2.1,15.8-3.1,30.7-3.1,44.9h0c0,.7,0,1.4,0,2.1,0,.9,0,1.9,0,2.8-.3,27-11.1,52.3-36.4,64.9-15.6,7.8-33.7,8.2-51,8.2-7.5,0-14.9-.2-22.4-.2-17.5-.2-34.9-.4-52.3-.6-20.1-.2-40.1-.5-60.2-.7-14.7-.2-29.4-.5-44.1-.6-14.4,0-28.3-.5-42.3,3.7-26.9,8-49.9,27.6-62,53-6.2,13.1-8.9,27.7-12.5,41.6-5.6,21.6-11.2,43.2-16.9,64.7-6.5,25-13,50-19.5,75.1-8.6,32.7-18.2,65.4-25.2,98.4-2.3,11-4.1,22-4.7,33.2-2.1,38.9,5.4,77.6,22.3,112.7,16.7,34.7,41.8,66.1,72.9,88.8,5.1,3.7,10.4,7.2,15.8,10.4,35.1,21,75.6,31.9,116.5,31.8h32.6c10.2,0,20.5-.7,30.6-1.9,11.3-1.3,22.5-3.1,33.6-5.3,10.9-2.1,22-4.2,32.6-7.7,10-3.3,19.4-8,28.6-13.1,16.6-9.2,30.7-21.7,44-35.1,13.3-13.4,25.4-28.6,30.9-46.9,5.7-19.3,5.5-40,5.8-60,.4-25.2.6-50.5.7-75.7,0-14.2.2-28.4.2-42.5l29-29h421.7l98.8-20,18.6,20h123l13.7,14.3h179.3l26.7-14.3h197.4l169.4-23.3h72.2c22.7,0,46.1-5.5,63.2-21.2,11.1-10.3,20.3-21.5,28.9-34,12.1-17.6,23.1-35.4,29.4-56,5.3-17.2,7-35.7,8.3-53.6,1.1-15.6,4.2-59.8,4.2-97.9s-1.1-49-3.1-73.5h0ZM825.7,439.2c1.5-11.1,3.7-22.3,7.8-32.8,4.4-11.1,11.3-20.4,18.8-29.5,8.9-10.8,18.2-21.3,29.6-29.6,13-9.4,28.3-15,43.6-19.6,11.3-3.5,23.3-5.3,35.2-5.3s14.3.7,21.3,2.1c30.8,6.2,59.5,21.8,87.3,35.7,10.7,5.4,21.5,10.8,32.2,16.1,13.6,6.8,27.2,13.6,40.7,20.4,15.5,7.8,31,15.5,46.5,23.3,16.5,8.3,33.1,16.5,49.6,24.8,16.6,8.3,33.2,16.6,49.9,24.9,15.8,7.9,31.6,15.7,47.4,23.6,14.1,7,28.2,14,42.2,21,11.4,5.7,22.9,11.3,34.3,17,7.9,3.9,15.8,7.8,23.7,11.6,4,1.9,8.1,3.7,12.3,5.1,12.4,4.4,25.1,6.4,37.7,6.4,26.1,0,51.7-8.9,73.5-24.6,6.3-4.5,12.6-9,18.8-13.6,13.3-9.6,26.6-19.1,39.8-28.7,15.7-11.3,31.4-22.6,47.1-33.9,15.5-11.2,31-22.4,46.6-33.5,12.8-9.2,25.6-18.4,38.3-27.6,15-10.8,29.5-22.6,45.7-31.5.2,0,.3-.2.4-.2,20.8-11.2,44.2-16.1,67.6-16.1s14.5.5,21.6,1.4c10,1.3,19.9,2.5,29.9,3.7,15.3,1.9,30.6,3.8,46,5.7,18.2,2.3,36.3,4.5,54.5,6.8,18.5,2.3,37,4.6,55.5,6.9,16.3,2,32.6,4.1,48.9,6.1,11.6,1.5,23.2,2.9,34.9,4.4,4.4.5,16.4,2.5,20.8,3.1,20.8,3,40.4,13.7,54,29.7,12.4,14.5,20.4,34,20.4,53.2,0,0,.1,91.2-.1,105.2-.3,16.7,0,33.8-4.6,50-4.2,15-11.9,29.1-22.8,40.4-27.1,28.1-64.9,47.9-101.9,59.3-38.8,12-79.8,16.4-120.4,16.4h-936.1c-6.7,0-13.4.2-20.1.2s-17.2-.3-25.7-1.5c-38.9-5.5-76-26.3-99.8-57.8,0,0-38.6-51.1-55.1-75.3-16.5-24.2-23.9-38.2-31.4-60.3-11.3-33.2-11.1-68.8-6.5-103.1h0ZM768.4,578.8c13-6.5,23.7-15.6,32-26.6,0,.3.2.6.3.9,8.4,24.6,17,41.2,35.5,68.3,16.4,24.1,53,72.6,56,76.7h0c11.5,15.2,25.5,28.4,41.2,39.3h-80.5c-2.1,0-4.3,0-6.5,0-6.8,0-14.6-.2-22.6.6-15,1.5-29.8,7-43,14.8-8.1,4.8-15.4,10.6-21.8,17.3v-76.1s.3-55.3-50.6-103.4h0c16.5,0,38.3-.8,60-11.6h0ZM517.6,1130.2c-29.8-7.9-57.6-23.4-80.4-44.1-21-19.1-37.7-43-49.1-68.9-12.4-28.2-18-59.2-16.3-89.9.5-8.3,1.8-17.6,4-28.2,4.8-22.8,11.2-46.3,17.3-68.9,2.5-9.3,5.1-18.7,7.5-28l36.4-139.8c.9-3.3,1.7-6.7,2.5-10.1,2.3-9.6,4.5-18.7,7.9-25.7,8.1-17,27.2-30.5,45.3-35.9,8.5-2.5,18.6-2.4,30.2-2.3h2.5c8.5,0,17.1.2,25.6.3,6.1,0,12.2.2,18.4.2l36.5.4c20.5,0,41.9,5.3,60.2,14.4,1.7.8,3.3,1.7,5,2.7,16.5,9.5,31.3,23,41.6,39.1,10,15.8,14.1,34.5,14.1,53.1v282.8c0,4.2,0,8.5,0,12.8.2,15.4.8,31.1-1.9,46.3-6.1,35.1-35.6,61.7-66.4,76.5-27.5,13.2-58.1,19.7-88.5,19.7s-35.4-1.8-52.7-6.4h0ZM2264.4,713.2c-5.5,18-14.9,33.8-27.4,51.9-8.8,12.8-17.3,22.8-26.7,31.5-15.6,14.4-37.5,17.4-53.1,17.3h-73.2l-169.4,23.3h-200.1l-29.5,15.8-.9.5h-15.2l-22.3-19-74.7-27.5h-167.6l-147.7,30.2h-426.5l-37.7,37.7v6.1c0,14.2-.2,28.3-.3,42.5-.2,25.4-.4,50.3-.7,75.6v5.3c-.3,17.2-.5,35-5.1,50.6-3.9,13.2-12.3,25.7-27.2,40.7-11,11.1-24.4,23.6-40.7,32.6-7,3.9-16.3,8.8-26,11.9-3.8,1.3-7.8,2.3-11.8,3.2.8-.4,1.6-.7,2.3-1.1,31.7-16,55.1-43.3,66.6-76.9,9.3-27.2,8.2-55.9,8.2-84.1v-130.5c0-28.1,12.5-55.7,37.1-70.2,9-5.3,19.2-8.8,29.7-9.8,8.4-.8,17.3-.3,25.8-.3h194c3.5,0,7,0,10.5,0,3.2,0,6.4,0,9.6,0h936.1c48.7,0,91.3-5.9,130.2-17.9,46.3-14.4,87.5-38.5,116-68,11.6-12,20.7-26.5,26.8-42.5-.4,6.6-.9,13.6-1.4,21-1.1,15.8-2.8,34-7.7,50.3h0Z"/>
      <g>
        <rect x="1494.3" y="1859.6" width="14" height="14"/>
        <rect class="cls-8" x="1480.3" y="1859.6" width="14" height="14"/>
        <rect class="cls-8" x="1494.3" y="1845.6" width="14" height="14"/>
        <rect class="cls-8" x="1480.3" y="1831.6" width="14" height="14"/>
        <rect class="cls-8" x="1494.3" y="1817.6" width="14" height="14"/>
        <rect class="cls-8" x="1480.3" y="1803.7" width="14" height="14"/>
        <rect class="cls-8" x="1494.3" y="1789.7" width="14" height="14"/>
        <rect class="cls-8" x="1480.3" y="1775.7" width="14" height="14"/>
        <rect class="cls-8" x="1494.3" y="1761.7" width="14" height="14"/>
        <rect class="cls-8" x="1480.3" y="1747.7" width="14" height="14"/>
        <rect class="cls-8" x="1494.3" y="1733.7" width="14" height="14"/>
        <rect class="cls-8" x="1480.3" y="1719.7" width="14" height="14"/>
        <rect class="cls-8" x="1494.3" y="1705.7" width="14" height="14"/>
        <rect class="cls-8" x="1480.3" y="1691.7" width="14" height="14"/>
        <rect class="cls-8" x="1494.3" y="1677.8" width="14" height="14"/>
        <rect x="1480.3" y="1845.6" width="14" height="14"/>
        <rect x="1494.3" y="1831.6" width="14" height="14"/>
        <rect x="1480.3" y="1817.6" width="14" height="14"/>
        <rect x="1494.3" y="1803.7" width="14" height="14"/>
        <rect x="1480.3" y="1789.7" width="14" height="14"/>
        <rect x="1494.3" y="1775.7" width="14" height="14"/>
        <rect x="1480.3" y="1761.7" width="14" height="14"/>
        <rect x="1494.3" y="1747.7" width="14" height="14"/>
        <rect x="1480.3" y="1733.7" width="14" height="14"/>
        <rect x="1494.3" y="1719.7" width="14" height="14"/>
        <rect x="1480.3" y="1705.7" width="14" height="14"/>
        <rect x="1494.3" y="1691.7" width="14" height="14"/>
        <rect x="1480.3" y="1677.8" width="14" height="14"/>
      </g>
      <g>
        <line class="cls-3" x1="1331.4" y1="1943" x2="1608.1" y2="1943"/>
        <polygon class="cls-2" points="1657.3 1943 1587.9 1971.4 1604.4 1943 1587.9 1914.7 1657.3 1943"/>
      </g>
      <g>
        <path d="M456,1216.5c3.4,0,6.2.5,8.6,1.5,2.4,1,4.3,2.3,5.8,3.9s2.6,3.4,3.2,5.5c.7,2.1,1,4.2,1,6.4s-.3,4.3-1,6.3-1.8,3.9-3.2,5.5c-1.5,1.6-3.4,2.9-5.8,3.9-2.4,1-5.2,1.5-8.6,1.5h-12.4v19.2h-11.8v-53.7h24.2ZM452.8,1241.7c1.4,0,2.7,0,3.9-.3,1.2-.2,2.4-.6,3.3-1.2,1-.6,1.7-1.4,2.3-2.4.6-1.1.9-2.4.9-4.1s-.3-3.1-.9-4.1c-.6-1.1-1.3-1.9-2.3-2.4-1-.6-2.1-1-3.3-1.2-1.2-.2-2.6-.3-3.9-.3h-9.2v16.1h9.2Z"/>
        <path d="M493.8,1216.5v53.7h-11.8v-53.7h11.8Z"/>
        <path d="M499.9,1226.4v-9.9h44v9.9h-16.1v43.8h-11.8v-43.8h-16.1,0Z"/>
      </g>
      <polygon points="601.7 1336.9 527.8 1324.1 556.8 1308.8 557.9 1276.1 601.7 1336.9"/>
    </g>
  </g>
</svg>