<!-- Created with Inkscape (http://www.inkscape.org/) -->

<svg viewBox="0 0 1331.9034 908.8739"
   xmlns:dc="http://purl.org/dc/elements/1.1/"
   xmlns:cc="http://creativecommons.org/ns#"
   xmlns:rdf="http://www.w3.org/1999/02/22-rdf-syntax-ns#"
   xmlns:svg="http://www.w3.org/2000/svg"
   xmlns="http://www.w3.org/2000/svg"
   xmlns:xlink="http://www.w3.org/1999/xlink"
   version="1.0"
  
  
   id="svg2383">
  <defs
     id="defs2385">
    <clipPath
       id="clipPath3490">
      <rect
         width="1511.7875"
         height="1003.7479"
         x="683.1405"
         y="104.1039"
         transform="matrix(-0.7183395,0.6956928,-0.6956928,-0.7183395,0,0)"
         id="rect3492"
         style="fill:#006a00;fill-opacity:1;fill-rule:nonzero;stroke:none" />
    </clipPath>
    <pattern
       id="pattern4912"
       patternTransform="matrix(0.1737876,0,0,0.1737876,763.47719,1693.9071)"
       height="18.137641"
       width="18.181098"
       patternUnits="userSpaceOnUse">
      <g
         transform="translate(-1025.5348,-1215.2814)"
         id="g4907">
        <rect
           y="1215.2814"
           x="1025.5348"
           height="18.095789"
           width="18.172573"
           id="rect4899"
           style="opacity:1;fill:#000000;fill-opacity:1;stroke:none;stroke-width:0.5;stroke-linecap:round;stroke-linejoin:round;stroke-miterlimit:4;stroke-dasharray:none;stroke-dashoffset:0;stroke-opacity:1" />
        <rect
           y="1215.2814"
           x="1025.5348"
           height="9.0746527"
           width="9.0746527"
           id="rect4903"
           style="opacity:1;fill:#ffffff;fill-opacity:1;stroke:none;stroke-width:0.5;stroke-linecap:round;stroke-linejoin:round;stroke-miterlimit:4;stroke-dasharray:none;stroke-dashoffset:0;stroke-opacity:1" />
        <rect
           y="1224.3444"
           x="1034.6412"
           height="9.0746527"
           width="9.0746527"
           id="rect4905"
           style="opacity:1;fill:#ffffff;fill-opacity:1;stroke:none;stroke-width:0.5;stroke-linecap:round;stroke-linejoin:round;stroke-miterlimit:4;stroke-dasharray:none;stroke-dashoffset:0;stroke-opacity:1" />
      </g>
    </pattern>
    <pattern
       patternTransform="matrix(0.4562459,1.6264824e-8,-1.6264824e-8,0.4562459,-1778.2267,454.6431)"
       id="pattern4166"
       xlink:href="#pattern4912" />
    <clipPath
       id="clipPath9716">
      <path
         d="M 871.13547,932.36346 C 1314.8756,1345.252 1758.6155,1758.1404 2202.3556,2171.029 2375.7787,1984.6474 2549.2018,1798.266 2722.6249,1611.8845 2278.8848,1198.996 1835.1448,786.10758 1391.4047,373.21904 1217.9816,559.60052 1044.5586,745.98194 871.13547,932.36346 z"
         id="path9718"
         style="fill:#6a6a6a;fill-opacity:1;fill-rule:nonzero;stroke:#010101;stroke-width:0.9426257;stroke-linecap:round;stroke-linejoin:round;stroke-miterlimit:4;stroke-opacity:1;stroke-dasharray:none;stroke-dashoffset:0" />
    </clipPath>
    <clipPath
       id="clipPath3494">
      <rect
         width="2168.1926"
         height="1468.4177"
         x="-4232.8457"
         y="-2372.1296"
         transform="matrix(-0.9472965,-0.3203582,0.9519016,-0.3064038,0,0)"
         id="rect3496"
         style="fill:#006a00;fill-opacity:1;fill-rule:nonzero;stroke:none" />
    </clipPath>
  </defs>
  <metadata
     id="metadata2388">
    <rdf:RDF>
      <cc:Work
         rdf:about="">
        <dc:format>image/svg+xml</dc:format>
        <dc:type
           rdf:resource="http://purl.org/dc/dcmitype/StillImage" />
        <dc:title></dc:title>
        <dc:date>8-8-2008</dc:date>
        <dc:creator>
          <cc:Agent>
            <dc:title>Will Pittenger</dc:title>
          </cc:Agent>
        </dc:creator>
        <dc:publisher>
          <cc:Agent>
            <dc:title>Will Pittenger</dc:title>
          </cc:Agent>
        </dc:publisher>
        <dc:subject>
          <rdf:Bag>
            <rdf:li>Australia</rdf:li>
            <rdf:li>Phillip Island</rdf:li>
            <rdf:li>Grand Prix</rdf:li>
            <rdf:li>roud course</rdf:li>
            <rdf:li>Super V8</rdf:li>
            <rdf:li>racing</rdf:li>
            <rdf:li>Gardner Straight</rdf:li>
            <rdf:li>Doohan Corner</rdf:li>
            <rdf:li>Southern Loop</rdf:li>
            <rdf:li>Miller Corner</rdf:li>
            <rdf:li>Siberia</rdf:li>
            <rdf:li>Lukey Heights</rdf:li>
          </rdf:Bag>
        </dc:subject>
        <dc:description>Created in Inkscape with daata from Google Earth</dc:description>
        <cc:license
           rdf:resource="http://creativecommons.org/licenses/by-sa/3.0/" />
      </cc:Work>
      <cc:License
         rdf:about="http://creativecommons.org/licenses/by-sa/3.0/">
        <cc:permits
           rdf:resource="http://creativecommons.org/ns#Reproduction" />
        <cc:permits
           rdf:resource="http://creativecommons.org/ns#Distribution" />
        <cc:requires
           rdf:resource="http://creativecommons.org/ns#Notice" />
        <cc:requires
           rdf:resource="http://creativecommons.org/ns#Attribution" />
        <cc:permits
           rdf:resource="http://creativecommons.org/ns#DerivativeWorks" />
        <cc:requires
           rdf:resource="http://creativecommons.org/ns#ShareAlike" />
      </cc:License>
    </rdf:RDF>
  </metadata>
  <g
     transform="translate(-1269.3965,-826.97145)"
     id="layer1">
    <use
       id="use3367"
       style="stroke:#ffffff;stroke-width:2;stroke-miterlimit:4;stroke-opacity:1;stroke-dasharray:none"
       x="0"
       y="0"
       width="744.09448"
       height="1052.3622"
       xlink:href="#text3339" />
    <use
       id="use3369"
       style="stroke:#ffffff;stroke-width:2;stroke-miterlimit:4;stroke-opacity:1;stroke-dasharray:none"
       x="0"
       y="0"
       width="744.09448"
       height="1052.3622"
       xlink:href="#text3345" />
    <use
       id="use3371"
       style="stroke:#ffffff;stroke-width:2;stroke-miterlimit:4;stroke-opacity:1;stroke-dasharray:none"
       x="0"
       y="0"
       width="744.09448"
       height="1052.3622"
       xlink:href="#text3351" />
    <use
       id="use3373"
       style="stroke:#ffffff;stroke-width:2;stroke-miterlimit:4;stroke-opacity:1;stroke-dasharray:none"
       x="0"
       y="0"
       width="744.09448"
       height="1052.3622"
       xlink:href="#text3355" />
    <use
       id="use3375"
       style="stroke:#ffffff;stroke-width:2;stroke-miterlimit:4;stroke-opacity:1;stroke-dasharray:none"
       x="0"
       y="0"
       width="744.09448"
       height="1052.3622"
       xlink:href="#text3361" />
    <path
       d="m 1798.3366,1391.6682 c 143.734,2.1482 288.6623,3.4259 432.347,5.4758 112.806,1.6093 155.6825,79.4301 176.2219,182.7891 5.5023,27.6153 4.3434,58.0929 15.3236,83.1854 13.9038,31.7738 40.674,57.3268 75.2496,63.205 38.8676,6.6079 71.7789,-19.8692 84.2676,-49.5301 13.1671,-31.2722 16.0217,-63.6198 0.5589,-91.6616 -48.4195,-87.8093 -95.1277,-167.0455 -148.0346,-251.1866 -7.6579,-12.1789 -21.6898,-27.9038 -33.1119,-36.6773 -13.7525,-10.5635 -31.0233,-20.7155 -46.7961,-27.6362 -19.9824,-8.7678 -39.028,-18.4001 -60.7433,-21.8954 -63.8586,-10.2789 -124.4862,-17.8727 -184.9736,-25.7258 -12.4699,-1.6189 -20.8709,-6.1739 -22.9932,-16.1441 -4.4381,-20.849 -0.8684,-29.7928 19.1615,-36.6619 29.5011,-10.1172 59.4451,-17.1122 90.8442,-20.5223 32.278,-3.5056 54.3039,-1.2615 87.8237,-3.2852 11.7226,-0.7077 26.8863,-14.8294 33.6631,-23.261 5.8991,-7.3395 8.5188,-21.2487 7.12,-31.1954 -1.8849,-13.4036 -6.0566,-24.236 -14.5048,-34.1971 -8.7376,-10.3025 -22.3018,-17.5333 -33.6614,-21.62 -48.4755,-17.4394 -92.1809,-40.40207 -142.8297,-45.15041 -54.4276,-5.1026 -112.9685,11.99231 -168.015,11.48731 -24.4904,-0.2247 -52.0255,-3.8972 -72.24,-17.2387 -52.7552,-34.81844 -93.2724,-85.81627 -145.025,-123.40497 -17.5687,-12.76039 -40.1803,-21.09036 -61.2946,-24.08 -20.1136,-2.84794 -43.7869,-0.98406 -62.389,6.56727 -18.2476,7.40745 -36.8224,22.0213 -48.16,38.30909 -14.5667,20.92676 -23.3626,48.01113 -29.5528,73.33455 -5.8498,23.93111 -3.7671,49.69446 -6.5672,74.42906 -1.578,13.9394 -1.4287,30.907 -8.4855,39.6746 -4.9832,6.1912 -20.448,7.4005 -28.1825,2.4616 -22.5479,-14.3981 -37.0711,-44.5245 -60.7466,-58.5544 -15.7282,-9.3204 -38.267,-8.5528 -56.3684,-6.2901 -14.0052,1.7507 -31.7368,10.5492 -41.0477,21.3444 -15.8636,18.3926 -25.5385,40.4043 -35.0239,63.753 -14.2297,35.0271 -22.0995,64.7629 -29.5449,101.5094 -3.8649,19.0753 -3.5739,47.0026 0.5464,65.9561 5.0009,23.004 13.668,42.5338 27.0912,61.2867 11.3865,15.9077 25.8114,29.9235 43.7756,38.5848 22.8988,11.0405 53.3611,24.5489 79.0875,25.1791 121.7214,2.9819 242.4154,5.5212 367.2099,7.3863 z"
       id="path3201"
       style="fill:none;stroke:#ffffff;stroke-width:17;stroke-linecap:butt;stroke-linejoin:round;stroke-miterlimit:4;stroke-opacity:1;stroke-dasharray:none" />
    <path
       d="m 1314.7076,1252.6833 c 5.4064,7.6922 31.022,27.5765 49.4116,35.9888 48.6597,22.2592 100.7053,39.051 151.7363,56.0257 10.7659,3.5811 25.3235,0.8116 32.4872,6.2251 4.249,3.2108 1.9049,11.4737 1.8196,17.6533 -0.057,4.0827 1.7294,5.8821 6.8249,6.0312"
       id="path3197"
       style="fill:none;stroke:#ffffff;stroke-width:7;stroke-linecap:butt;stroke-linejoin:round;stroke-miterlimit:4;stroke-opacity:1;stroke-dasharray:none" />
    <path
       d="m 1309.4139,1107.3674 c -2.8084,7.3707 -12.2093,45.3907 -14.1187,68.2451 -1.1169,13.3687 0.606,27.4194 4.0599,40.4415 3.3322,12.5633 7.6444,25.8738 15.1312,36.3148 9.4785,13.2186 23.3954,23.6002 35.7646,34.6641 24.129,21.5827 47.4959,44.7505 73.7301,63.2758 14.0239,9.903 30.3692,18.8735 47.0442,22.009 26.2425,4.9345 54.4689,1.6074 81.7083,2.2009 90.6003,1.9742 181.2299,3.1882 271.8109,5.5023 9.9267,0.2536 19.7925,1.6085 29.7121,1.7882 15.3908,0.2788 30.846,0.4331 46.2189,-0.4127 12.9636,-0.7132 25.821,-3.5984 38.7908,-3.8515 24.6289,-0.4806 49.3343,1.2362 74.0052,1.6506 68.1336,1.1445 133.9789,1.9055 198.4935,3.1639 10.42,0.2059 16.4474,1.1923 23.247,2.6135 15.3688,3.212 30.7552,9.2506 45.9093,13.7555"
       id="path3199"
       style="fill:none;stroke:#ffffff;stroke-width:7;stroke-linecap:butt;stroke-linejoin:round;stroke-miterlimit:4;stroke-opacity:1;stroke-dasharray:none" />
    <path
       d="m 1798.3366,1391.6682 c 143.734,2.1482 288.6623,3.4259 432.347,5.4758 112.806,1.6093 155.6825,79.4301 176.2219,182.7891 5.5023,27.6153 4.3434,58.0929 15.3236,83.1854 13.9038,31.7738 40.674,57.3268 75.2496,63.205 38.8676,6.6079 71.7789,-19.8692 84.2676,-49.5301 13.1671,-31.2722 16.0217,-63.6198 0.5589,-91.6616 -48.4195,-87.8093 -95.1277,-167.0455 -148.0346,-251.1866 -7.6579,-12.1789 -21.6898,-27.9038 -33.1119,-36.6773 -13.7525,-10.5635 -31.0233,-20.7155 -46.7961,-27.6362 -19.9824,-8.7678 -39.028,-18.4001 -60.7433,-21.8954 -63.8586,-10.2789 -124.4862,-17.8727 -184.9736,-25.7258 -12.4699,-1.6189 -20.8709,-6.1739 -22.9932,-16.1441 -4.4381,-20.849 -0.8684,-29.7928 19.1615,-36.6619 29.5011,-10.1172 59.4451,-17.1122 90.8442,-20.5223 32.278,-3.5056 54.3039,-1.2615 87.8237,-3.2852 11.7226,-0.7077 26.8863,-14.8294 33.6631,-23.261 5.8991,-7.3395 8.5188,-21.2487 7.12,-31.1954 -1.8849,-13.4036 -6.0566,-24.236 -14.5048,-34.1971 -8.7376,-10.3025 -22.3018,-17.5333 -33.6614,-21.62 -48.4755,-17.4394 -92.1809,-40.40207 -142.8297,-45.15041 -54.4276,-5.1026 -112.9685,11.99231 -168.015,11.48731 -24.4904,-0.2247 -52.0255,-3.8972 -72.24,-17.2387 -52.7552,-34.81844 -93.2724,-85.81627 -145.025,-123.40497 -17.5687,-12.76039 -40.1803,-21.09036 -61.2946,-24.08 -20.1136,-2.84794 -43.7869,-0.98406 -62.389,6.56727 -18.2476,7.40745 -36.8224,22.0213 -48.16,38.30909 -14.5667,20.92676 -23.3626,48.01113 -29.5528,73.33455 -5.8498,23.93111 -3.7671,49.69446 -6.5672,74.42906 -1.578,13.9394 -1.4287,30.907 -8.4855,39.6746 -4.9832,6.1912 -20.448,7.4005 -28.1825,2.4616 -22.5479,-14.3981 -37.0711,-44.5245 -60.7466,-58.5544 -15.7282,-9.3204 -38.267,-8.5528 -56.3684,-6.2901 -14.0052,1.7507 -31.7368,10.5492 -41.0477,21.3444 -15.8636,18.3926 -25.5385,40.4043 -35.0239,63.753 -14.2297,35.0271 -22.0995,64.7629 -29.5449,101.5094 -3.8649,19.0753 -3.5739,47.0026 0.5464,65.9561 5.0009,23.004 13.668,42.5338 27.0912,61.2867 11.3865,15.9077 25.8114,29.9235 43.7756,38.5848 22.8988,11.0405 53.3611,24.5489 79.0875,25.1791 121.7214,2.9819 242.4154,5.5212 367.2099,7.3863 z"
       id="path2419"
       style="fill:none;stroke:#000000;stroke-width:15;stroke-linecap:butt;stroke-linejoin:round;stroke-miterlimit:4;stroke-opacity:1;stroke-dasharray:none" />
    <path
       d="m 1314.7076,1252.6833 c 5.4064,7.6922 31.022,27.5765 49.4116,35.9888 48.6597,22.2592 100.7053,39.051 151.7363,56.0257 10.7659,3.5811 25.3235,0.8116 32.4872,6.2251 4.249,3.2108 1.9049,11.4737 1.8196,17.6533 -0.057,4.0827 1.7294,5.8821 6.8249,6.0312"
       id="path3195"
       style="fill:none;stroke:#c8c8c8;stroke-width:5;stroke-linecap:butt;stroke-linejoin:round;stroke-miterlimit:4;stroke-opacity:1;stroke-dasharray:none" />
    <path
       d="m 1309.4139,1107.3674 c -2.8084,7.3707 -12.2093,45.3907 -14.1187,68.2451 -1.1169,13.3687 0.606,27.4194 4.0599,40.4415 3.3322,12.5633 7.6444,25.8738 15.1312,36.3148 9.4785,13.2186 23.3954,23.6002 35.7646,34.6641 24.129,21.5827 47.4959,44.7505 73.7301,63.2758 14.0239,9.903 30.3692,18.8735 47.0442,22.009 26.2425,4.9345 54.4689,1.6074 81.7083,2.2009 90.6003,1.9742 181.2299,3.1882 271.8109,5.5023 9.9267,0.2536 19.7925,1.6085 29.7121,1.7882 15.3908,0.2788 30.846,0.4331 46.2189,-0.4127 12.9636,-0.7132 25.821,-3.5984 38.7908,-3.8515 24.6289,-0.4806 49.3343,1.2362 74.0052,1.6506 68.1336,1.1445 133.9789,1.9055 198.4935,3.1639 10.42,0.2059 16.4474,1.1923 23.247,2.6135 15.3688,3.212 30.7552,9.2506 45.9093,13.7555"
       id="path3193"
       style="fill:none;stroke:#000000;stroke-width:5;stroke-linecap:butt;stroke-linejoin:round;stroke-miterlimit:4;stroke-opacity:1;stroke-dasharray:none" />
    <g
       transform="translate(-7.7116571,23.134971)"
       id="g3330">
      <path
         d="m 1362.76,1396.0818 a 29.744963,29.744963 0 1 1 -59.4899,0 29.744963,29.744963 0 1 1 59.4899,0 z"
         transform="translate(965.70203,36.161377)"
         id="path3328"
         style="fill:#ffffff;fill-opacity:1;fill-rule:nonzero;stroke:#181818;stroke-width:2;stroke-linecap:round;stroke-linejoin:round;stroke-miterlimit:4;stroke-opacity:1;stroke-dasharray:none;stroke-dashoffset:66;marker:none;visibility:visible;display:inline;overflow:visible;enable-background:accumulate" />
      <text
         x="2284.8538"
         y="1451.165"
         id="text3203"
         xml:space="preserve"
         style="font-size:56px;font-style:normal;font-weight:normal;writing-mode:lr-tb;fill:#000000;fill-opacity:1;stroke:none;font-family:Times New Roman"><tspan
           x="2284.8538"
           y="1451.165"
           id="tspan3205">1</tspan></text>
    </g>
    <g
       transform="translate(-8.8133224,24.236637)"
       id="g3323">
      <path
         d="m 1362.76,1396.0818 a 29.744963,29.744963 0 1 1 -59.4899,0 29.744963,29.744963 0 1 1 59.4899,0 z"
         transform="translate(1191.1198,262.00269)"
         id="path3321"
         style="fill:#ffffff;fill-opacity:1;fill-rule:nonzero;stroke:#181818;stroke-width:2;stroke-linecap:round;stroke-linejoin:round;stroke-miterlimit:4;stroke-opacity:1;stroke-dasharray:none;stroke-dashoffset:66;marker:none;visibility:visible;display:inline;overflow:visible;enable-background:accumulate" />
      <text
         x="2510.6953"
         y="1677.0063"
         id="text3207"
         xml:space="preserve"
         style="font-size:56px;font-style:normal;font-weight:normal;writing-mode:lr-tb;fill:#000000;fill-opacity:1;stroke:none;font-family:Times New Roman"><tspan
           x="2510.6953"
           y="1677.0063"
           id="tspan3209">2</tspan></text>
    </g>
    <g
       transform="translate(-14.321649,18.72831)"
       id="g3316">
      <path
         d="m 1362.76,1396.0818 a 29.744963,29.744963 0 1 1 -59.4899,0 29.744963,29.744963 0 1 1 59.4899,0 z"
         transform="translate(1092.4425,-169.52197)"
         id="path3314"
         style="fill:#ffffff;fill-opacity:1;fill-rule:nonzero;stroke:#181818;stroke-width:2;stroke-linecap:round;stroke-linejoin:round;stroke-miterlimit:4;stroke-opacity:1;stroke-dasharray:none;stroke-dashoffset:66;marker:none;visibility:visible;display:inline;overflow:visible;enable-background:accumulate" />
      <text
         x="2412.647"
         y="1245.1536"
         id="text3211"
         xml:space="preserve"
         style="font-size:56px;font-style:normal;font-weight:normal;writing-mode:lr-tb;fill:#000000;fill-opacity:1;stroke:none;font-family:Times New Roman"><tspan
           x="2412.647"
           y="1245.1536"
           id="tspan3213">3</tspan></text>
    </g>
    <g
       transform="translate(1.1016653,30.846628)"
       id="g3309">
      <path
         d="m 1362.76,1396.0818 a 29.744963,29.744963 0 1 1 -59.4899,0 29.744963,29.744963 0 1 1 59.4899,0 z"
         transform="translate(706.41431,-228.2384)"
         id="path3307"
         style="fill:#ffffff;fill-opacity:1;fill-rule:nonzero;stroke:#181818;stroke-width:2;stroke-linecap:round;stroke-linejoin:round;stroke-miterlimit:4;stroke-opacity:1;stroke-dasharray:none;stroke-dashoffset:66;marker:none;visibility:visible;display:inline;overflow:visible;enable-background:accumulate" />
      <text
         x="2025.9625"
         y="1186.7653"
         id="text3215"
         xml:space="preserve"
         style="font-size:56px;font-style:normal;font-weight:normal;writing-mode:lr-tb;fill:#000000;fill-opacity:1;stroke:none;font-family:Times New Roman"><tspan
           x="2025.9625"
           y="1186.7653"
           id="tspan3217">4</tspan></text>
    </g>
    <g
       transform="translate(-6.6099918,16.52498)"
       id="g3302">
      <path
         d="m 1362.76,1396.0818 a 29.744963,29.744963 0 1 1 -59.4899,0 29.744963,29.744963 0 1 1 59.4899,0 z"
         transform="translate(874.99646,-309.05066)"
         id="path3300"
         style="fill:#ffffff;fill-opacity:1;fill-rule:nonzero;stroke:#181818;stroke-width:2;stroke-linecap:round;stroke-linejoin:round;stroke-miterlimit:4;stroke-opacity:1;stroke-dasharray:none;stroke-dashoffset:66;marker:none;visibility:visible;display:inline;overflow:visible;enable-background:accumulate" />
      <text
         x="2194.5173"
         y="1105.2421"
         id="text3219"
         xml:space="preserve"
         style="font-size:56px;font-style:normal;font-weight:normal;writing-mode:lr-tb;fill:#000000;fill-opacity:1;stroke:none;font-family:Times New Roman"><tspan
           x="2194.5173"
           y="1105.2421"
           id="tspan3221">5</tspan></text>
    </g>
    <g
       transform="translate(57.286596,0)"
       id="g3295">
      <path
         d="m 1362.76,1396.0818 a 29.744963,29.744963 0 1 1 -59.4899,0 29.744963,29.744963 0 1 1 59.4899,0 z"
         transform="translate(975.87683,-333.67004)"
         id="path3293"
         style="fill:#ffffff;fill-opacity:1;fill-rule:nonzero;stroke:#181818;stroke-width:2;stroke-linecap:round;stroke-linejoin:round;stroke-miterlimit:4;stroke-opacity:1;stroke-dasharray:none;stroke-dashoffset:66;marker:none;visibility:visible;display:inline;overflow:visible;enable-background:accumulate" />
      <text
         x="2294.7688"
         y="1081.0055"
         id="text3223"
         xml:space="preserve"
         style="font-size:56px;font-style:normal;font-weight:normal;writing-mode:lr-tb;fill:#000000;fill-opacity:1;stroke:none;font-family:Times New Roman"><tspan
           x="2294.7688"
           y="1081.0055"
           id="tspan3225">6</tspan></text>
    </g>
    <g
       transform="translate(-12.118318,16.557397)"
       id="g3288">
      <path
         d="m 1362.76,1396.0818 a 29.744963,29.744963 0 1 1 -59.4899,0 29.744963,29.744963 0 1 1 59.4899,0 z"
         transform="translate(820.21399,-465.43237)"
         id="path3286"
         style="fill:#ffffff;fill-opacity:1;fill-rule:nonzero;stroke:#181818;stroke-width:2;stroke-linecap:round;stroke-linejoin:round;stroke-miterlimit:4;stroke-opacity:1;stroke-dasharray:none;stroke-dashoffset:66;marker:none;visibility:visible;display:inline;overflow:visible;enable-background:accumulate" />
      <text
         x="2139.4341"
         y="948.80566"
         id="text3227"
         xml:space="preserve"
         style="font-size:56px;font-style:normal;font-weight:normal;writing-mode:lr-tb;fill:#000000;fill-opacity:1;stroke:none;font-family:Times New Roman"><tspan
           x="2139.4341"
           y="948.80566"
           id="tspan3229">7</tspan></text>
    </g>
    <g
       transform="translate(-5.5083265,12.118318)"
       id="g3281">
      <path
         d="m 1362.76,1396.0818 a 29.744963,29.744963 0 1 1 -59.4899,0 29.744963,29.744963 0 1 1 59.4899,0 z"
         transform="translate(616.69287,-452.6499)"
         id="path3279"
         style="fill:#ffffff;fill-opacity:1;fill-rule:nonzero;stroke:#181818;stroke-width:2;stroke-linecap:round;stroke-linejoin:round;stroke-miterlimit:4;stroke-opacity:1;stroke-dasharray:none;stroke-dashoffset:66;marker:none;visibility:visible;display:inline;overflow:visible;enable-background:accumulate" />
      <text
         x="1935.6259"
         y="962.02563"
         id="text3231"
         xml:space="preserve"
         style="font-size:56px;font-style:normal;font-weight:normal;writing-mode:lr-tb;fill:#000000;fill-opacity:1;stroke:none;font-family:Times New Roman"><tspan
           x="1935.6259"
           y="962.02563"
           id="tspan3233">8</tspan></text>
    </g>
    <g
       transform="translate(-13.219984,15.423314)"
       id="g3274">
      <path
         d="m 1362.76,1396.0818 a 29.744963,29.744963 0 1 1 -59.4899,0 29.744963,29.744963 0 1 1 59.4899,0 z"
         transform="translate(343.30212,-528.61011)"
         id="path3272"
         style="fill:#ffffff;fill-opacity:1;fill-rule:nonzero;stroke:#181818;stroke-width:2;stroke-linecap:round;stroke-linejoin:round;stroke-miterlimit:4;stroke-opacity:1;stroke-dasharray:none;stroke-dashoffset:66;marker:none;visibility:visible;display:inline;overflow:visible;enable-background:accumulate" />
      <text
         x="1662.4128"
         y="886.01074"
         id="text3235"
         xml:space="preserve"
         style="font-size:56px;font-style:normal;font-weight:normal;writing-mode:lr-tb;fill:#000000;fill-opacity:1;stroke:none;font-family:Times New Roman"><tspan
           x="1662.4128"
           y="886.01074"
           id="tspan3237">9</tspan></text>
    </g>
    <g
       transform="translate(-22.931641,6.8983347)"
       id="g3267">
      <path
         d="m 1362.76,1396.0818 a 29.744963,29.744963 0 1 1 -59.4899,0 29.744963,29.744963 0 1 1 59.4899,0 z"
         transform="translate(181.21143,-409.68494)"
         id="path3265"
         style="fill:#ffffff;fill-opacity:1;fill-rule:nonzero;stroke:#181818;stroke-width:2;stroke-linecap:round;stroke-linejoin:round;stroke-miterlimit:4;stroke-opacity:1;stroke-dasharray:none;stroke-dashoffset:66;marker:none;visibility:visible;display:inline;overflow:visible;enable-background:accumulate" />
      <text
         x="1483.9432"
         y="1004.9906"
         id="text3239"
         xml:space="preserve"
         style="font-size:56px;font-style:normal;font-weight:normal;writing-mode:lr-tb;fill:#000000;fill-opacity:1;stroke:none;font-family:Times New Roman"><tspan
           x="1483.9432"
           y="1004.9906"
           id="tspan3241">10</tspan></text>
    </g>
    <g
       transform="translate(-1.1016653,9.9149877)"
       id="g3260">
      <path
         d="m 1362.76,1396.0818 a 29.744963,29.744963 0 1 1 -59.4899,0 29.744963,29.744963 0 1 1 59.4899,0 z"
         transform="translate(70.828247,-354.92981)"
         id="path3258"
         style="fill:#ffffff;fill-opacity:1;fill-rule:nonzero;stroke:#181818;stroke-width:2;stroke-linecap:round;stroke-linejoin:round;stroke-miterlimit:4;stroke-opacity:1;stroke-dasharray:none;stroke-dashoffset:66;marker:none;visibility:visible;display:inline;overflow:visible;enable-background:accumulate" />
      <text
         x="1375.98"
         y="1060.0739"
         id="text3243"
         xml:space="preserve"
         style="font-size:56px;font-style:normal;font-weight:normal;writing-mode:lr-tb;fill:#000000;fill-opacity:1;stroke:none;font-family:Times New Roman"><tspan
           x="1375.98"
           y="1060.0739"
           id="tspan3245">11</tspan></text>
    </g>
    <g
       transform="translate(-25.338302,-6.6099918)"
       id="g3253">
      <path
         d="m 1362.76,1396.0818 a 29.744963,29.744963 0 1 1 -59.4899,0 29.744963,29.744963 0 1 1 59.4899,0 z"
         transform="translate(3.6790771,-1.2952881)"
         id="path3251"
         style="fill:#ffffff;fill-opacity:1;fill-rule:nonzero;stroke:#181818;stroke-width:2;stroke-linecap:round;stroke-linejoin:round;stroke-miterlimit:4;stroke-opacity:1;stroke-dasharray:none;stroke-dashoffset:66;marker:none;visibility:visible;display:inline;overflow:visible;enable-background:accumulate" />
      <text
         x="1306.575"
         y="1413.7084"
         id="text3247"
         xml:space="preserve"
         style="font-size:56px;font-style:normal;font-weight:normal;writing-mode:lr-tb;fill:#000000;fill-opacity:1;stroke:none;font-family:Times New Roman"><tspan
           x="1306.575"
           y="1413.7084"
           id="tspan3249">12</tspan></text>
    </g>
    <text
       x="2399.427"
       y="1653.8713"
       id="text3339"
       xml:space="preserve"
       style="font-size:32px;font-style:normal;font-weight:normal;text-align:end;writing-mode:lr-tb;text-anchor:end;fill:#000000;fill-opacity:1;font-family:Times New Roman"><tspan
         x="2399.427"
         y="1653.8713"
         id="tspan3341">Southern</tspan><tspan
         x="2399.427"
         y="1693.8713"
         id="tspan3343">Loop</tspan></text>
    <text
       x="1919.1008"
       y="1187.8669"
       id="text3345"
       xml:space="preserve"
       style="font-size:32px;font-style:normal;font-weight:normal;writing-mode:lr-tb;fill:#000000;fill-opacity:1;font-family:Times New Roman"><tspan
         x="1919.1008"
         y="1187.8669"
         id="tspan3347">Miller</tspan><tspan
         x="1919.1008"
         y="1227.8669"
         id="tspan3349">Corner</tspan></text>
    <text
       x="2401.5835"
       y="1071.0978"
       id="text3351"
       xml:space="preserve"
       style="font-size:32px;font-style:normal;font-weight:normal;writing-mode:lr-tb;fill:#000000;fill-opacity:1;font-family:Times New Roman"><tspan
         x="2401.5835"
         y="1071.0978"
         id="tspan3353">Siberia</tspan></text>
    <text
       x="1631.5663"
       y="947.70398"
       id="text3355"
       xml:space="preserve"
       style="font-size:32px;font-style:normal;font-weight:normal;writing-mode:lr-tb;fill:#000000;fill-opacity:1;font-family:Times New Roman"><tspan
         x="1631.5663"
         y="947.70398"
         id="tspan3357">Lukey</tspan><tspan
         x="1631.5663"
         y="987.70398"
         id="tspan3359">Heights</tspan></text>
    <text
       x="1843.4553"
       y="1430.5765"
       id="text3361"
       xml:space="preserve"
       style="font-size:32px;font-style:normal;font-weight:normal;writing-mode:lr-tb;fill:#000000;fill-opacity:1;font-family:Times New Roman"><tspan
         x="1843.4553"
         y="1430.5765"
         id="tspan3363">Gardner Straight</tspan></text>
    <path
       d="m 2240.7872,1368.5401 c 26.8072,7.7117 56.1547,10.7007 80.4216,23.135 20.1669,10.3335 37.2354,28.3901 52.8799,45.1683 9.6938,10.3962 15.4233,24.2366 23.135,36.3549"
       id="path3377"
       style="fill:none;stroke:none" />
    <g
       transform="matrix(1.9555278,0,0,1.9555278,-2363.2969,-280.76004)"
       id="g3804"
       style="display:inline">
      <text
         x="2073.4658"
         y="964.98792"
         id="text3180"
         xml:space="preserve"
         style="font-size:64px;font-style:normal;font-weight:normal;fill:#000000;fill-opacity:1;stroke:#ffffff;stroke-width:0.51137096px;stroke-linecap:butt;stroke-linejoin:miter;stroke-opacity:1;font-family:Times New Roman"><tspan
           x="2073.4658"
           y="964.98792"
           id="tspan3182"
           style="stroke-width:0.51137096">N</tspan></text>
      <path
         d="m 2127.446,926.58448 52.3405,16.11512 -0.4919,0.90624 -14.6912,3.15329 5.357,14.03872 -0.4922,0.90601 -42.0222,-35.11938 z"
         id="path2745"
         style="fill:#ff0000;fill-opacity:1;fill-rule:nonzero;stroke:#ffffff;stroke-width:0.51137096;stroke-linecap:round;stroke-linejoin:round;stroke-miterlimit:4;stroke-opacity:1;stroke-dasharray:none;stroke-dashoffset:0" />
    </g>
    <g
       transform="matrix(0.9360189,0.8856542,0.8856542,-0.9360189,-260.24797,882.37812)"
       clip-path="url(#clipPath9716)"
       id="g4801"
       style="display:inline">
      <path
         d="m 1695.937,1398.5206 -24.4812,0 12.2406,-21.2013 z"
         transform="matrix(-0.358939,0.3679125,-1.1151124,-1.0879142,3587.0721,1686.6577)"
         clip-path="url(#clipPath3494)"
         id="path3463"
         style="fill:#ff0000;fill-opacity:1;stroke:#ffffff;stroke-width:0.867217;stroke-linecap:round;stroke-linejoin:miter;stroke-miterlimit:4;stroke-opacity:1;stroke-dasharray:none;stroke-dashoffset:0;display:inline" />
      <rect
         width="13.041035"
         height="53.588943"
         ry="0"
         x="-1620.8837"
         y="376.01733"
         transform="matrix(-0.7183395,-0.6956928,0.6956928,-0.7183395,0,0)"
         clip-path="url(#clipPath3490)"
         id="rect3457"
         style="fill:url(#pattern4166);fill-opacity:1;stroke:#000000;stroke-width:0.77603012;stroke-linecap:round;stroke-linejoin:round;stroke-miterlimit:4;stroke-opacity:1;stroke-dasharray:none;stroke-dashoffset:0;display:inline" />
    </g>
    <path
       d="m 1695.937,1398.5206 -24.4812,0 12.2406,-21.2013 z"
       transform="matrix(0.6133235,-0.2500739,-0.7579531,-1.8589331,1532.8553,4043.5472)"
       clip-path="url(#clipPath3494)"
       id="path5248"
       style="fill:#000000;fill-opacity:1;stroke:#ffffff;stroke-width:0.867217;stroke-linecap:round;stroke-linejoin:miter;stroke-miterlimit:4;stroke-opacity:1;stroke-dasharray:none;stroke-dashoffset:0;display:inline" />
    <text
       x="2453.6677"
       y="1235.7765"
       id="text3351-8"
       xml:space="preserve"
       style="font-size:32px;font-style:normal;font-weight:normal;writing-mode:lr-tb;fill:#000000;fill-opacity:1;font-family:Times New Roman"><tspan
         x="2453.6677"
         y="1235.7765"
         id="tspan3353-4">Stoner</tspan><tspan
         x="2453.6677"
         y="1275.7765"
         id="tspan3370">Corner</tspan></text>
    <text
       x="2122.3611"
       y="1513.2535"
       id="text3361-7"
       xml:space="preserve"
       style="font-size:32px;font-style:normal;font-weight:normal;writing-mode:lr-tb;fill:#000000;fill-opacity:1;font-family:Times New Roman"><tspan
         x="2122.3611"
         y="1513.2535"
         id="tspan3363-9">Doohan Corner</tspan></text>
  </g>
</svg>