<!-- Created with Inkscape (http://www.inkscape.org/) -->
<svg viewBox="0 0 1388.847 826.88861"
   xmlns:dc="http://purl.org/dc/elements/1.1/"
   xmlns:cc="http://creativecommons.org/ns#"
   xmlns:rdf="http://www.w3.org/1999/02/22-rdf-syntax-ns#"
   xmlns:svg="http://www.w3.org/2000/svg"
   xmlns="http://www.w3.org/2000/svg"
   xmlns:xlink="http://www.w3.org/1999/xlink"
   xmlns:sodipodi="http://sodipodi.sourceforge.net/DTD/sodipodi-0.dtd"
   xmlns:inkscape="http://www.inkscape.org/namespaces/inkscape"
  
  
   id="svg2383"
   sodipodi:version="0.32"
   inkscape:version="0.46"
   sodipodi:docname="Mid-Ohio.svg"
   inkscape:output_extension="org.inkscape.output.svg.inkscape"
   version="1.0"
   inkscape:export-filename="D:\Images\Race Tracks\Mid-Ohio.png"
   inkscape:export-xdpi="200"
   inkscape:export-ydpi="200">
  <defs
     id="defs2385">
    <pattern
       patternUnits="userSpaceOnUse"
       width="18.181098"
       height="18.137641"
       patternTransform="matrix(0.1737876,0,0,0.1737876,763.47719,1693.9071)"
       id="pattern4912">
      <g
         id="g4907"
         transform="translate(-1025.5348,-1215.2814)">
        <rect
           style="opacity:1;fill:#000000;fill-opacity:1;stroke:none;stroke-width:0.5;stroke-linecap:round;stroke-linejoin:round;stroke-miterlimit:4;stroke-dasharray:none;stroke-dashoffset:0;stroke-opacity:1"
           id="rect4899"
           width="18.172573"
           height="18.095789"
           x="1025.5348"
           y="1215.2814" />
        <rect
           style="opacity:1;fill:#ffffff;fill-opacity:1;stroke:none;stroke-width:0.5;stroke-linecap:round;stroke-linejoin:round;stroke-miterlimit:4;stroke-dasharray:none;stroke-dashoffset:0;stroke-opacity:1"
           id="rect4903"
           width="9.0746527"
           height="9.0746527"
           x="1025.5348"
           y="1215.2814" />
        <rect
           style="opacity:1;fill:#ffffff;fill-opacity:1;stroke:none;stroke-width:0.5;stroke-linecap:round;stroke-linejoin:round;stroke-miterlimit:4;stroke-dasharray:none;stroke-dashoffset:0;stroke-opacity:1"
           id="rect4905"
           width="9.0746527"
           height="9.0746527"
           x="1034.6412"
           y="1224.3444" />
      </g>
    </pattern>
    <pattern
       inkscape:collect="always"
       xlink:href="#pattern4912"
       id="pattern4166"
       patternTransform="matrix(0.4562459,0,0,0.4562459,1597.9241,90.617715)" />
    <inkscape:perspective
       sodipodi:type="inkscape:persp3d"
       inkscape:vp_x="0 : 526.18109 : 1"
       inkscape:vp_y="0 : 1000 : 0"
       inkscape:vp_z="744.09448 : 526.18109 : 1"
       inkscape:persp3d-origin="372.04724 : 350.78739 : 1"
       id="perspective2391" />
    <inkscape:perspective
       id="perspective2457"
       inkscape:persp3d-origin="372.04724 : 350.78739 : 1"
       inkscape:vp_z="744.09448 : 526.18109 : 1"
       inkscape:vp_y="0 : 1000 : 0"
       inkscape:vp_x="0 : 526.18109 : 1"
       sodipodi:type="inkscape:persp3d" />
  </defs>
  <sodipodi:namedview
     id="base"
     pagecolor="#ffffff"
     bordercolor="#ffffff"
     borderopacity="0.0"
     inkscape:pageopacity="0.0"
     inkscape:pageshadow="0"
     inkscape:zoom="0.51658225"
     inkscape:cx="735.06185"
     inkscape:cy="468.2852"
     inkscape:document-units="px"
     inkscape:current-layer="layer1"
     showgrid="false"
     inkscape:window-width="1440"
     inkscape:window-height="844"
     inkscape:window-x="-4"
     inkscape:window-y="-4"
     showborder="false"
     inkscape:showpageshadow="false" />
  <metadata
     id="metadata2388">
    <rdf:RDF>
      <cc:Work
         rdf:about="">
        <dc:format>image/svg+xml</dc:format>
        <dc:type
           rdf:resource="http://purl.org/dc/dcmitype/StillImage" />
        <dc:title>Track Map of Mid-Ohio</dc:title>
        <dc:date>6-30-2008</dc:date>
        <dc:creator>
          <cc:Agent>
            <dc:title>Will Pittenger</dc:title>
          </cc:Agent>
        </dc:creator>
        <dc:publisher>
          <cc:Agent>
            <dc:title>Will Pittenger</dc:title>
          </cc:Agent>
        </dc:publisher>
        <dc:language>English</dc:language>
        <dc:subject>
          <rdf:Bag>
            <rdf:li>Mid-Ohio</rdf:li>
            <rdf:li>Map</rdf:li>
            <rdf:li>racing</rdf:li>
          </rdf:Bag>
        </dc:subject>
        <dc:description>Created with Inkscape</dc:description>
        <cc:license
           rdf:resource="http://creativecommons.org/licenses/publicdomain/" />
      </cc:Work>
      <cc:License
         rdf:about="http://creativecommons.org/licenses/publicdomain/">
        <cc:permits
           rdf:resource="http://creativecommons.org/ns#Reproduction" />
        <cc:permits
           rdf:resource="http://creativecommons.org/ns#Distribution" />
        <cc:permits
           rdf:resource="http://creativecommons.org/ns#DerivativeWorks" />
      </cc:License>
    </rdf:RDF>
  </metadata>
  <g
     inkscape:label="Layer 1"
     inkscape:groupmode="layer"
     id="layer1"
     transform="translate(-450.56346,-749.61127)">
    <path
       style="fill:#c8c8c8;fill-opacity:1;fill-rule:evenodd;stroke:#ffffff;stroke-width:0.25;stroke-linecap:round;stroke-linejoin:round;stroke-miterlimit:4;stroke-dasharray:none;stroke-opacity:1"
       d="M 685.09375,1219.4688 C 680.19626,1219.6896 675.34772,1220.5057 670.78125,1222.0625 C 660.11998,1225.697 654.77619,1233.9209 648.71875,1240.8438 C 647.69972,1241.9044 647.34492,1243.4388 647.79486,1244.8391 C 648.2448,1246.2394 649.4269,1247.2799 650.87303,1247.5485 C 652.31915,1247.8171 653.79601,1247.2704 654.71875,1246.125 C 661.22308,1238.6914 665.4492,1232.3163 673.34375,1229.625 C 680.74836,1227.1006 689.91799,1226.8821 698.3125,1228.2812 C 705.15024,1229.421 718.67054,1235.2335 722.40625,1239.0938 C 728.39594,1245.2831 731.56571,1253.7934 733,1263.2188 C 734.18513,1271.007 733.54393,1279.0785 730.8125,1286.6875 C 728.53632,1293.0283 723.48813,1299.078 718.21875,1305.9688 C 716.8812,1307.7292 717.22399,1310.2406 718.9844,1311.5782 C 720.74481,1312.9157 723.2562,1312.5729 724.59375,1310.8125 C 729.69285,1304.1444 735.38683,1297.6435 738.34375,1289.4062 C 741.54526,1280.4878 742.2813,1271.0675 740.90625,1262.0312 C 739.31774,1251.5924 735.70796,1241.3347 728.15625,1233.5312 C 721.50614,1226.6595 708.47073,1221.8806 699.625,1220.4062 C 694.91491,1219.6212 689.99124,1219.2479 685.09375,1219.4688 z"
       id="path3239" />
    <path
       style="fill:#c8c8c8;fill-opacity:1;fill-rule:evenodd;stroke:#ffffff;stroke-width:0.25;stroke-linecap:round;stroke-linejoin:round;stroke-miterlimit:4;stroke-dasharray:none;stroke-opacity:1"
       d="M 799.78125,1079.125 C 798.60902,1079.1369 797.50098,1079.6623 796.75,1080.5625 C 790.54983,1087.779 787.63308,1092.3538 784.375,1100.875 C 782.07467,1106.8912 780.74856,1114.9756 781.125,1121.375 C 781.63781,1130.0928 784.44117,1139.1124 788.0625,1146.7812 C 791.86361,1154.8307 798.58856,1160.9581 803.90625,1165.9375 C 810.62554,1172.2294 821.98341,1175.1481 833.125,1173.875 C 844.89777,1172.5297 853.70715,1163.9873 862.84375,1155.8438 C 863.99566,1154.9185 864.54378,1153.4337 864.26934,1151.9819 C 863.9949,1150.5301 862.94258,1149.3478 861.53241,1148.9069 C 860.12224,1148.4659 858.58385,1148.8382 857.53125,1149.875 C 848.32366,1158.0818 840.44706,1164.9972 832.21875,1165.9375 C 823.26022,1166.9611 813.42597,1163.8871 809.375,1160.0938 C 804.0568,1155.1139 798.18803,1149.4644 795.3125,1143.375 C 792.05174,1136.4697 789.5223,1128.1917 789.09375,1120.9062 C 788.8164,1116.1913 790.09664,1108.3194 791.84375,1103.75 C 794.9067,1095.7392 796.84963,1092.7216 802.8125,1085.7812 C 803.86292,1084.5981 804.11739,1082.9071 803.46169,1081.4672 C 802.80598,1080.0274 801.36329,1079.1093 799.78125,1079.125 z"
       id="path3241" />
    <path
       style="fill:#c8c8c8;fill-opacity:1;fill-rule:evenodd;stroke:#ffffff;stroke-width:0.25000000000000000;stroke-linecap:round;stroke-linejoin:round;stroke-miterlimit:4;stroke-dasharray:none;stroke-opacity:1"
       d="M 709.50038,1325.3437 C 698.08198,1336.243 677.83558,1342.5876 663.90663,1346.6249 C 649.64975,1350.7574 633.86194,1352.429 622.84413,1358.5311 C 609.89331,1365.7039 599.60588,1377.8823 589.65663,1390.4374 C 583.82658,1397.7943 580.05375,1411.7225 578.50038,1422.0311 C 575.81257,1439.8684 577.79703,1455.8436 575.84413,1475.0937 C 574.84145,1484.9772 569.87024,1494.3423 564.21913,1501.4061 C 563.87219,1501.7969 557.87568,1497.036 557.96913,1496.4061 C 562.85344,1490.3009 567.09801,1481.9439 567.87538,1474.2811 C 569.72544,1456.0449 567.72072,1439.9125 570.59413,1420.8437 C 572.25292,1409.8352 575.6971,1395.1578 583.37538,1385.4687 C 593.41599,1372.7982 604.26911,1359.6726 618.96913,1351.5311 C 632.14288,1344.235 648.48684,1342.7639 661.68788,1338.9374 C 675.33375,1334.9821 695.05307,1328.103 704.00038,1319.5624"
       id="path2466"
       sodipodi:nodetypes="csssssccsssssc" />
    <path
       style="fill:#000000;fill-opacity:1;fill-rule:evenodd;stroke:#ffffff;stroke-width:0.25;stroke-linecap:round;stroke-linejoin:round;stroke-miterlimit:4;stroke-dasharray:none;stroke-opacity:1"
       d="M 1244.6875,863.0625 C 1240.8465,863.04905 1236.7385,863.35423 1232.5938,863.875 C 1224.3041,864.91654 1216.1093,866.80994 1210.375,869.21875 C 1113.2492,910.01884 1027.8191,951.26076 932.625,997.3125 C 904.74566,1010.7996 878.36124,1027.0755 852.125,1042.9688 C 836.77382,1052.2681 821.94574,1062.441 807.5625,1073.0625 C 796.03716,1081.5735 783.61166,1089.9794 773.46875,1101.125 C 678.26693,1205.7384 595.75517,1300.6345 501.875,1406.5312 C 499.17461,1409.5773 493.83954,1414.8356 488.75,1420.25 C 483.66046,1425.6644 478.80341,1430.9935 476.4375,1435.8438 C 471.69615,1445.5636 468.91526,1459.9877 469.78125,1470.8125 C 470.62741,1481.3895 473.06518,1492.2088 480.3125,1500.625 C 486.93741,1508.3185 497.30859,1514.6599 507.84375,1516.3125 C 519.12357,1518.0819 528.69151,1518.4342 540.28125,1515.3438 C 548.08507,1513.2627 558.72027,1508.2794 564.21875,1501.4062 C 710.07785,1324.4658 564.04518,1501.2094 709.5,1325.3438 C 752.19973,1284.5849 785.11543,1242.9169 824.59375,1197.9688 C 851.22776,1167.6446 873.41548,1142.6131 901.625,1114.0938 C 909.33782,1106.2961 924.51866,1093.8653 933.28125,1090.8438 C 945.81382,1086.5221 958.09673,1083.4804 971.3125,1083.875 C 983.80694,1084.248 996.6612,1086.1456 1008.5938,1089.6875 C 1010.369,1090.2144 1012.813,1091.2522 1015.5312,1092.5625 L 1049.1562,1123.9375 L 1049.1562,1123.9688 L 1060.5312,1142.4688 C 1060.556,1142.5245 1060.5875,1142.5769 1060.625,1142.625 L 1253.8125,1338.7812 L 1253.8438,1338.8125 L 1273.5,1360.875 L 1280,1378.0312 L 1280.0312,1378.0312 L 1284.1562,1392.1875 L 1282.9375,1405.7188 L 1282.9375,1405.8125 L 1277,1424.8125 C 1276.9841,1424.8633 1276.9735,1424.9156 1276.9688,1424.9688 L 1275.7812,1439.3125 C 1275.7695,1439.4177 1275.7801,1439.5242 1275.8125,1439.625 L 1279.4062,1450.375 C 1279.4211,1450.4292 1279.442,1450.4817 1279.4688,1450.5312 L 1293.2188,1473.2812 C 1293.2372,1473.314 1293.2582,1473.3453 1293.2812,1473.375 L 1310.6562,1493.7188 C 1310.7345,1493.8019 1310.8307,1493.866 1310.9375,1493.9062 L 1329.4688,1501.6875 C 1329.5479,1501.7226 1329.6324,1501.7437 1329.7188,1501.75 L 1332.4375,1501.9062 C 1336.8908,1503.116 1341.4701,1503.8125 1345.9062,1503.8125 C 1357.5855,1503.8125 1371.4042,1501.4266 1381.5938,1494.7812 C 1391.9614,1488.0197 1399.0639,1476.1814 1404.5,1465.75 C 1414.0557,1447.4133 1421.9393,1427.4993 1427.5312,1407.5625 C 1431.3871,1393.8153 1431.4153,1379.6642 1434.1562,1366.9375 C 1436.927,1354.0731 1438.6768,1341.1465 1444,1330.5 C 1448.9374,1320.6253 1455.314,1310.1825 1463.125,1304.4375 C 1466.269,1302.1251 1474.7883,1298.8671 1484.2188,1296.2188 C 1493.6491,1293.5703 1504.196,1291.2268 1512.4062,1289.5625 C 1540.7127,1283.8245 1572.9703,1275.8586 1589.4062,1269 C 1606.1498,1262.013 1624.7974,1252.2727 1638.2188,1239.1562 C 1678.2817,1200.0038 1714.0174,1156.215 1749.7812,1112.9375 C 1761.5856,1098.6532 1772.4244,1083.4471 1779.6875,1066.5 C 1784.7464,1054.6958 1790.3544,1038.8043 1785.0938,1025.75 C 1778.1196,1008.4438 1761.1862,995.29917 1747.5625,983 C 1732.5517,969.44864 1716.0848,955.25144 1697.375,947.5625 C 1684.7079,942.35682 1671.5476,945.07527 1659.2188,945.46875 C 1634.1225,946.2697 1609.2338,950.38622 1585.4062,949.0625 C 1574.7837,948.47236 1564.4517,944.51117 1555.1875,939.125 C 1548.7513,935.38298 1541.9683,927.0452 1535.4062,920.34375 C 1523.081,907.75632 1511.251,894.28754 1496.4688,884.53125 C 1489.741,880.09088 1481.2273,878.50105 1473.3125,879.71875 C 1464.2342,881.11542 1454.1736,884.20579 1446.4062,890.03125 C 1436.9169,897.14827 1429.585,906.05836 1422.125,914.90625 C 1412.26,926.60664 1403.3733,939.63004 1393.5,950.34375 C 1384.6055,959.99525 1377.0297,970.87456 1367.6875,974.78125 C 1357.5161,979.03474 1342.9596,980.85352 1332.6562,977.9375 C 1324.3663,975.5913 1314.5519,967.99124 1309.8125,960.5 C 1303.4078,950.37638 1302.9751,939.87119 1298.25,926.3125 C 1293.5958,912.95684 1288.1754,897.37228 1280.1562,885.34375 C 1274.6246,877.04637 1265.7114,867.20077 1255.1562,864.28125 C 1252.0887,863.43277 1248.5285,863.07595 1244.6875,863.0625 z M 1244.7188,871.125 C 1248.1249,871.14891 1251.0668,871.42538 1253.0312,871.96875 C 1259.8337,873.8503 1268.6784,882.54891 1273.5,889.78125 C 1280.6502,900.50658 1286.0403,915.63325 1290.6875,928.96875 C 1295.0053,941.35884 1295.464,952.77057 1303.0625,964.78125 C 1309.0447,974.23698 1319.6544,982.56436 1330.4688,985.625 C 1343.3328,989.26575 1358.9548,987.13315 1370.7812,982.1875 C 1383.3079,976.94914 1391.1269,964.76539 1399.4062,955.78125 C 1409.8448,944.45419 1418.7319,931.31427 1428.2188,920.0625 C 1435.7027,911.18621 1442.6837,902.81534 1451.1875,896.4375 C 1457.3301,891.83048 1466.3854,888.87821 1474.5312,887.625 C 1480.4975,886.70708 1487.2649,888.02105 1492.0625,891.1875 C 1505.6336,900.14441 1517.1687,913.18366 1529.6875,925.96875 C 1535.7679,932.17843 1542.58,941.0762 1551.1562,946.0625 C 1561.1751,951.8874 1572.6692,956.3792 1584.9688,957.0625 C 1610.0014,958.45317 1635.0956,954.24662 1659.4688,953.46875 C 1672.6426,953.0483 1684.479,950.92757 1694.3125,954.96875 C 1711.3251,961.96021 1727.325,975.49188 1742.2188,988.9375 C 1756.1161,1001.4838 1771.9174,1014.4003 1777.6875,1028.7188 C 1781.2172,1037.4774 1777.1094,1052.151 1772.3125,1063.3438 C 1765.5039,1079.2303 1755.1513,1093.8579 1743.5938,1107.8438 C 1707.8083,1151.1472 1672.2544,1194.7088 1632.625,1233.4375 C 1620.4587,1245.3274 1602.5781,1254.8504 1586.3438,1261.625 C 1571.36,1267.8775 1538.8504,1276.0351 1510.8125,1281.7188 C 1502.4885,1283.4061 1491.8111,1285.7621 1482.0625,1288.5 C 1472.3139,1291.2379 1463.6718,1294.0728 1458.375,1297.9688 C 1448.6006,1305.1579 1441.9745,1316.676 1436.8438,1326.9375 C 1430.7007,1339.2238 1429.0171,1352.8691 1426.3438,1365.2812 C 1423.3631,1379.1203 1423.271,1393.076 1419.8125,1405.4062 C 1414.3747,1424.7929 1406.6979,1444.2326 1397.4062,1462.0625 C 1392.1794,1472.0924 1385.304,1482.7894 1377.2188,1488.0625 C 1369.1727,1493.3098 1356.4183,1495.8125 1345.9062,1495.8125 C 1337.6552,1495.8125 1327.5788,1492.565 1320.5312,1488.0625 C 1314.9474,1484.4951 1309.7888,1477.2649 1306.4062,1470.5 C 1303.5575,1464.8025 1302.0625,1457.4057 1302.0625,1450.75 C 1302.0626,1440.6116 1306.0304,1429.5275 1306.8438,1417.5312 C 1307.6644,1405.4271 1309.6253,1391.9802 1306.75,1379.2812 C 1304.4019,1368.9105 1298.4122,1359.0338 1291.5,1351.1875 C 1268.2894,1324.8405 1247.4793,1309.041 1223.125,1284.3438 C 1162.8135,1223.1828 1104.5561,1158.8787 1042.4062,1100 C 1035.2102,1093.1826 1020.0777,1084.763 1010.875,1082.0312 C 998.19421,1078.2672 984.7025,1076.2672 971.5625,1075.875 C 956.97515,1075.4395 943.6225,1078.8102 930.65625,1083.2812 C 918.65825,1087.4185 904.21246,1100.1027 895.9375,1108.4688 C 867.55539,1137.1627 845.23942,1162.3501 818.59375,1192.6875 C 778.95417,1237.8194 746.21459,1279.2667 704,1319.5625 C 557.68411,1496.5766 704.25818,1320.3621 557.96875,1496.4062 C 554.86084,1500.2911 544.28227,1505.9767 538.21875,1507.5938 C 527.7849,1510.376 519.84548,1510.0978 509.0625,1508.4062 C 500.98408,1507.139 491.63563,1501.5155 486.375,1495.4062 C 480.78301,1488.9123 478.53194,1479.9617 477.75,1470.1875 C 477.05378,1461.4848 479.79135,1447.2026 483.625,1439.3438 C 484.94734,1436.633 489.61228,1431.0162 494.5625,1425.75 C 499.51272,1420.4838 504.74232,1415.342 507.84375,1411.8438 C 601.75391,1305.913 684.27643,1211.0342 779.40625,1106.5 C 788.69411,1096.294 800.61448,1088.1386 812.3125,1079.5 C 826.54835,1068.9874 841.19221,1058.953 856.28125,1049.8125 C 882.55272,1033.8981 908.70463,1017.7812 936.09375,1004.5312 C 1031.2845,958.48121 1116.5735,917.29694 1213.4688,876.59375 C 1217.9979,874.69116 1225.8482,872.78176 1233.5625,871.8125 C 1237.4197,871.32787 1241.3125,871.10109 1244.7188,871.125 z M 1020.375,1095.0312 C 1026.9249,1098.5531 1033.8217,1102.9198 1036.875,1105.8125 C 1098.7263,1164.4084 1156.9676,1228.6472 1217.4375,1289.9688 C 1242.1854,1315.0652 1262.7775,1330.7426 1285.4688,1356.5 C 1291.6755,1363.5455 1297.0072,1372.5371 1298.9375,1381.0625 C 1301.3548,1391.7388 1299.6913,1404.4665 1298.8438,1416.9688 C 1298.135,1427.4232 1294.0626,1438.6788 1294.0625,1450.75 C 1294.0625,1458.5731 1295.6972,1466.9569 1299.25,1474.0625 C 1302.8415,1481.2456 1308.0522,1489.0948 1315.1562,1494.0625 L 1311.6562,1492.5938 L 1294.5,1472.5 L 1294.4688,1472.4375 L 1294.4375,1472.4062 L 1280.7812,1449.7812 L 1280.75,1449.75 L 1277.2812,1439.375 L 1278.4688,1425.1562 L 1278.4688,1425.0938 L 1284.4062,1406.125 C 1284.4245,1406.0641 1284.4351,1406.0011 1284.4375,1405.9375 L 1285.6562,1392.1875 C 1285.6637,1392.0926 1285.6532,1391.9972 1285.625,1391.9062 L 1281.4375,1377.5625 C 1281.428,1377.5412 1281.4177,1377.5203 1281.4062,1377.5 L 1274.8438,1360.1562 C 1274.8053,1360.0745 1274.7523,1360.0004 1274.6875,1359.9375 L 1254.9375,1337.7812 C 1254.9271,1337.781 1254.9167,1337.7811 1254.9062,1337.7812 L 1061.8125,1141.6875 L 1061.75,1141.5938 L 1061.7188,1141.5625 L 1050.4375,1123.1562 C 1050.403,1123.0988 1050.361,1123.0463 1050.3125,1123 L 1020.375,1095.0312 z"
       id="path2463"
       sodipodi:nodetypes="csssssssssssssccsssssccccccccccccccccccccccccccsssssssssssssssssssssssssssssssccssssssssssssssssssscssssssssssssssssssssssssccsssssscssssssccssssssscccccccccccccccccccccccccc" />
    <path
       sodipodi:type="star"
       style="opacity:1;fill:#ff0000;fill-opacity:1;stroke:#ffffff;stroke-width:1;stroke-linecap:round;stroke-linejoin:miter;stroke-miterlimit:4;stroke-dasharray:none;stroke-dashoffset:0;stroke-opacity:1"
       id="path3463"
       sodipodi:sides="3"
       sodipodi:cx="1683.6964"
       sodipodi:cy="1391.4535"
       sodipodi:r1="14.134234"
       sodipodi:r2="7.0671172"
       sodipodi:arg1="0.52359878"
       sodipodi:arg2="1.5707963"
       inkscape:flatsided="true"
       inkscape:rounded="0"
       inkscape:randomized="0"
       d="M 1695.937,1398.5206 L 1671.4558,1398.5206 L 1683.6964,1377.3193 L 1695.937,1398.5206 z"
       transform="matrix(-0.3807979,0.3452387,1.0463899,1.1541668,437.66139,-900.52086)" />
    <rect
       style="opacity:1;fill:url(#pattern4166);fill-opacity:1;stroke:#000000;stroke-width:0.7640143;stroke-linecap:round;stroke-linejoin:round;stroke-miterlimit:4;stroke-dasharray:none;stroke-dashoffset:0;stroke-opacity:1;display:inline"
       id="rect3457"
       width="11.30081"
       height="45.983616"
       x="1756.3602"
       y="12.018251"
       transform="matrix(0.672711,0.7399053,0.7399053,-0.672711,0,0)"
       ry="0" />
    <text
       xml:space="preserve"
       style="font-size:32px;font-style:normal;font-variant:normal;font-weight:bold;font-stretch:normal;text-align:center;line-height:125%;writing-mode:lr-tb;text-anchor:middle;fill:#000000;fill-opacity:1;stroke:#ffffff;stroke-width:0.5;stroke-linecap:butt;stroke-linejoin:miter;stroke-miterlimit:4;stroke-dasharray:none;stroke-opacity:1;font-family:Times New Roman;-inkscape-font-specification:Times New Roman Bold"
       x="1067.4554"
       y="1308.6831"
       id="text4061"
       sodipodi:linespacing="125%"><tspan
         sodipodi:role="line"
         id="tspan4063"
         x="1067.4554"
         y="1308.6831">Finish line</tspan><tspan
         sodipodi:role="line"
         x="1067.4554"
         y="1348.6831"
         id="tspan4065">(also used for restarts)</tspan></text>
    <path
       sodipodi:type="star"
       style="opacity:1;fill:#000000;fill-opacity:1;stroke:#ffffff;stroke-width:1;stroke-linecap:round;stroke-linejoin:miter;stroke-miterlimit:4;stroke-dasharray:none;stroke-dashoffset:0;stroke-opacity:1"
       id="path4067"
       sodipodi:sides="3"
       sodipodi:cx="1683.6964"
       sodipodi:cy="1391.4535"
       sodipodi:r1="14.134234"
       sodipodi:r2="7.0671172"
       sodipodi:arg1="0.52359878"
       sodipodi:arg2="1.5707963"
       inkscape:flatsided="true"
       inkscape:rounded="0"
       inkscape:randomized="0"
       d="M 1695.937,1398.5206 L 1671.4558,1398.5206 L 1683.6964,1377.3193 L 1695.937,1398.5206 z"
       transform="matrix(-0.1783508,-0.2852079,-0.8644416,0.5405666,2681.3095,1034.6747)" />
    <path
       sodipodi:type="star"
       style="opacity:1;fill:#000000;fill-opacity:1;stroke:#ffffff;stroke-width:1;stroke-linecap:round;stroke-linejoin:miter;stroke-miterlimit:4;stroke-dasharray:none;stroke-dashoffset:0;stroke-opacity:1"
       id="path4069"
       sodipodi:sides="3"
       sodipodi:cx="1683.6964"
       sodipodi:cy="1391.4535"
       sodipodi:r1="14.134234"
       sodipodi:r2="7.0671172"
       sodipodi:arg1="0.52359878"
       sodipodi:arg2="1.5707963"
       inkscape:flatsided="true"
       inkscape:rounded="0"
       inkscape:randomized="0"
       d="M 1695.937,1398.5206 L 1671.4558,1398.5206 L 1683.6964,1377.3193 L 1695.937,1398.5206 z"
       transform="matrix(0.2731744,-0.1962864,-0.5949279,-0.8279689,1215.0243,2504.2264)" />
    <text
       xml:space="preserve"
       style="font-size:32px;font-style:normal;font-variant:normal;font-weight:bold;font-stretch:normal;text-align:center;line-height:125%;writing-mode:lr-tb;text-anchor:middle;fill:#000000;fill-opacity:1;stroke:#ffffff;stroke-width:0.5;stroke-linecap:butt;stroke-linejoin:miter;stroke-miterlimit:4;stroke-dasharray:none;stroke-opacity:1;font-family:Times New Roman;-inkscape-font-specification:Times New Roman Bold"
       x="302.07709"
       y="1218.6698"
       id="text4071"
       transform="matrix(0.89384,-0.448386,0.448386,0.89384,0,0)"
       sodipodi:linespacing="125%"><tspan
         sodipodi:role="line"
         id="tspan4073"
         x="302.07709"
         y="1218.6698">Start Line</tspan><tspan
         sodipodi:role="line"
         x="302.07709"
         y="1258.6698"
         id="tspan4075">(initial starts only)</tspan></text>
    <g
       id="g3231"
       transform="translate(-12.808219,-5.3367579)">
      <path
         transform="matrix(0.8799456,0,0,0.8799456,-272.65621,1097.4428)"
         d="M 887.08201,503.92938 A 25.067486,25.067486 0 1 1 836.94704,503.92938 A 25.067486,25.067486 0 1 1 887.08201,503.92938 z"
         sodipodi:ry="25.067486"
         sodipodi:rx="25.067486"
         sodipodi:cy="503.92938"
         sodipodi:cx="862.01453"
         id="path3229"
         style="opacity:1;fill:#ffffff;fill-opacity:1;fill-rule:nonzero;stroke:#0d0d0d;stroke-width:1;stroke-linecap:round;stroke-linejoin:round;stroke-miterlimit:4;stroke-dasharray:none;stroke-dashoffset:0;stroke-opacity:1"
         sodipodi:type="arc" />
      <text
         id="text2410"
         y="1551.6857"
         x="478.19"
         style="font-size:32px;font-style:normal;font-weight:normal;fill:#000000;fill-opacity:1;stroke:none;stroke-width:1px;stroke-linecap:butt;stroke-linejoin:miter;stroke-opacity:1;font-family:Times New Roman"
         xml:space="preserve"><tspan
           y="1551.6857"
           x="478.19"
           id="tspan2412"
           sodipodi:role="line">2</tspan></text>
    </g>
    <g
       id="g2480"
       transform="translate(8.8041019,2.2010255)">
      <path
         transform="matrix(0.8799456,0,0,0.8799456,199.37393,669.00154)"
         d="M 887.08201,503.92938 A 25.067486,25.067486 0 1 1 836.94704,503.92938 A 25.067486,25.067486 0 1 1 887.08201,503.92938 z"
         sodipodi:ry="25.067486"
         sodipodi:rx="25.067486"
         sodipodi:cy="503.92938"
         sodipodi:cx="862.01453"
         id="path2478"
         style="fill:#ffffff;fill-opacity:1;fill-rule:nonzero;stroke:#0d0d0d;stroke-width:1;stroke-linecap:round;stroke-linejoin:round;stroke-miterlimit:4;stroke-dasharray:none;stroke-dashoffset:0;stroke-opacity:1"
         sodipodi:type="arc" />
      <text
         id="text2414"
         y="1123.2445"
         x="949.97797"
         style="font-size:32px;font-style:normal;font-weight:normal;fill:#000000;fill-opacity:1;stroke:none;stroke-width:1px;stroke-linecap:butt;stroke-linejoin:miter;stroke-opacity:1;font-family:Times New Roman"
         xml:space="preserve"><tspan
           y="1123.2445"
           x="949.97797"
           id="tspan2416"
           sodipodi:role="line">1</tspan></text>
    </g>
    <g
       id="g3238">
      <path
         transform="matrix(0.8799456,0,0,0.8799456,27.13045,610.85983)"
         d="M 887.08201,503.92938 A 25.067486,25.067486 0 1 1 836.94704,503.92938 A 25.067486,25.067486 0 1 1 887.08201,503.92938 z"
         sodipodi:ry="25.067486"
         sodipodi:rx="25.067486"
         sodipodi:cy="503.92938"
         sodipodi:cx="862.01453"
         id="path3236"
         style="opacity:1;fill:#ffffff;fill-opacity:1;fill-rule:nonzero;stroke:#0d0d0d;stroke-width:1;stroke-linecap:round;stroke-linejoin:round;stroke-miterlimit:4;stroke-dasharray:none;stroke-dashoffset:0;stroke-opacity:1"
         sodipodi:type="arc" />
      <text
         id="text2418"
         y="1064.9153"
         x="778.336"
         style="font-size:32px;font-style:normal;font-weight:normal;fill:#000000;fill-opacity:1;stroke:none;stroke-width:1px;stroke-linecap:butt;stroke-linejoin:miter;stroke-opacity:1;font-family:Times New Roman"
         xml:space="preserve"><tspan
           y="1064.9153"
           x="778.336"
           id="tspan2420"
           sodipodi:role="line">3</tspan></text>
    </g>
    <g
       id="g3245"
       transform="translate(-7.1621385,80.82985)">
      <path
         transform="matrix(0.8799456,0,0,0.8799456,493.69262,382.68367)"
         d="M 887.08201,503.92938 A 25.067486,25.067486 0 1 1 836.94704,503.92938 A 25.067486,25.067486 0 1 1 887.08201,503.92938 z"
         sodipodi:ry="25.067486"
         sodipodi:rx="25.067486"
         sodipodi:cy="503.92938"
         sodipodi:cx="862.01453"
         id="path3243"
         style="opacity:1;fill:#ffffff;fill-opacity:1;fill-rule:nonzero;stroke:#0d0d0d;stroke-width:1;stroke-linecap:round;stroke-linejoin:round;stroke-miterlimit:4;stroke-dasharray:none;stroke-dashoffset:0;stroke-opacity:1"
         sodipodi:type="arc" />
      <text
         id="text2422"
         y="836.92664"
         x="1244.5232"
         style="font-size:32px;font-style:normal;font-weight:normal;fill:#000000;fill-opacity:1;stroke:none;stroke-width:1px;stroke-linecap:butt;stroke-linejoin:miter;stroke-opacity:1;font-family:Times New Roman"
         xml:space="preserve"><tspan
           y="836.92664"
           x="1244.5232"
           id="tspan2424"
           sodipodi:role="line">4</tspan></text>
    </g>
    <g
       id="g3252"
       transform="translate(0,3.069488)">
      <path
         transform="matrix(0.8799456,0,0,0.8799456,581.6846,568.89927)"
         d="M 887.08201,503.92938 A 25.067486,25.067486 0 1 1 836.94704,503.92938 A 25.067486,25.067486 0 1 1 887.08201,503.92938 z"
         sodipodi:ry="25.067486"
         sodipodi:rx="25.067486"
         sodipodi:cy="503.92938"
         sodipodi:cx="862.01453"
         id="path3250"
         style="opacity:1;fill:#ffffff;fill-opacity:1;fill-rule:nonzero;stroke:#0d0d0d;stroke-width:1;stroke-linecap:round;stroke-linejoin:round;stroke-miterlimit:4;stroke-dasharray:none;stroke-dashoffset:0;stroke-opacity:1"
         sodipodi:type="arc" />
      <text
         id="text2426"
         y="1022.736"
         x="1332.4995"
         style="font-size:32px;font-style:normal;font-weight:normal;fill:#000000;fill-opacity:1;stroke:none;stroke-width:1px;stroke-linecap:butt;stroke-linejoin:miter;stroke-opacity:1;font-family:Times New Roman"
         xml:space="preserve"><tspan
           y="1022.736"
           x="1332.4995"
           id="tspan2428"
           sodipodi:role="line">5</tspan></text>
    </g>
    <g
       id="g3259">
      <path
         transform="matrix(0.8799456,0,0,0.8799456,721.85789,406.21641)"
         d="M 887.08201,503.92938 A 25.067486,25.067486 0 1 1 836.94704,503.92938 A 25.067486,25.067486 0 1 1 887.08201,503.92938 z"
         sodipodi:ry="25.067486"
         sodipodi:rx="25.067486"
         sodipodi:cy="503.92938"
         sodipodi:cx="862.01453"
         id="path3257"
         style="opacity:1;fill:#ffffff;fill-opacity:1;fill-rule:nonzero;stroke:#0d0d0d;stroke-width:1;stroke-linecap:round;stroke-linejoin:round;stroke-miterlimit:4;stroke-dasharray:none;stroke-dashoffset:0;stroke-opacity:1"
         sodipodi:type="arc" />
      <text
         id="text2430"
         y="860.27185"
         x="1472.3135"
         style="font-size:32px;font-style:normal;font-weight:normal;fill:#000000;fill-opacity:1;stroke:none;stroke-width:1px;stroke-linecap:butt;stroke-linejoin:miter;stroke-opacity:1;font-family:Times New Roman"
         xml:space="preserve"><tspan
           y="860.27185"
           x="1472.3135"
           id="tspan2432"
           sodipodi:role="line">6</tspan></text>
    </g>
    <g
       id="g3266"
       transform="translate(23.037748,-68.016207)">
      <path
         transform="matrix(0.8799456,0,0,0.8799456,804.01832,540.12609)"
         d="M 887.08201,503.92938 A 25.067486,25.067486 0 1 1 836.94704,503.92938 A 25.067486,25.067486 0 1 1 887.08201,503.92938 z"
         sodipodi:ry="25.067486"
         sodipodi:rx="25.067486"
         sodipodi:cy="503.92938"
         sodipodi:cx="862.01453"
         id="path3264"
         style="opacity:1;fill:#ffffff;fill-opacity:1;fill-rule:nonzero;stroke:#0d0d0d;stroke-width:1;stroke-linecap:round;stroke-linejoin:round;stroke-miterlimit:4;stroke-dasharray:none;stroke-dashoffset:0;stroke-opacity:1"
         sodipodi:type="arc" />
      <text
         id="text2434"
         y="993.93152"
         x="1554.6614"
         style="font-size:32px;font-style:normal;font-weight:normal;fill:#000000;fill-opacity:1;stroke:none;stroke-width:1px;stroke-linecap:butt;stroke-linejoin:miter;stroke-opacity:1;font-family:Times New Roman"
         xml:space="preserve"><tspan
           y="993.93152"
           x="1554.6614"
           id="tspan2436"
           sodipodi:role="line">7</tspan></text>
    </g>
    <g
       id="g3273"
       transform="translate(0,-3.2325022)">
      <path
         transform="matrix(0.8799456,0,0,0.8799456,939.78341,474.39854)"
         d="M 887.08201,503.92938 A 25.067486,25.067486 0 1 1 836.94704,503.92938 A 25.067486,25.067486 0 1 1 887.08201,503.92938 z"
         sodipodi:ry="25.067486"
         sodipodi:rx="25.067486"
         sodipodi:cy="503.92938"
         sodipodi:cx="862.01453"
         id="path3271"
         style="opacity:1;fill:#ffffff;fill-opacity:1;fill-rule:nonzero;stroke:#0d0d0d;stroke-width:1;stroke-linecap:round;stroke-linejoin:round;stroke-miterlimit:4;stroke-dasharray:none;stroke-dashoffset:0;stroke-opacity:1"
         sodipodi:type="arc" />
      <text
         id="text2438"
         y="928.45398"
         x="1690.2625"
         style="font-size:32px;font-style:normal;font-weight:normal;fill:#000000;fill-opacity:1;stroke:none;stroke-width:1px;stroke-linecap:butt;stroke-linejoin:miter;stroke-opacity:1;font-family:Times New Roman"
         xml:space="preserve"><tspan
           y="928.45398"
           x="1690.2625"
           id="tspan2440"
           sodipodi:role="line">8</tspan></text>
    </g>
    <g
       id="g3287"
       transform="translate(-45.121018,-56.12615)">
      <path
         transform="matrix(0.8799456,0,0,0.8799456,881.22417,835.82704)"
         d="M 887.08201,503.92938 A 25.067486,25.067486 0 1 1 836.94704,503.92938 A 25.067486,25.067486 0 1 1 887.08201,503.92938 z"
         sodipodi:ry="25.067486"
         sodipodi:rx="25.067486"
         sodipodi:cy="503.92938"
         sodipodi:cx="862.01453"
         id="path3285"
         style="opacity:1;fill:#ffffff;fill-opacity:1;fill-rule:nonzero;stroke:#0d0d0d;stroke-width:1;stroke-linecap:round;stroke-linejoin:round;stroke-miterlimit:4;stroke-dasharray:none;stroke-dashoffset:0;stroke-opacity:1"
         sodipodi:type="arc" />
      <text
         id="text2442"
         y="1289.8824"
         x="1622.4453"
         style="font-size:32px;font-style:normal;font-weight:normal;fill:#000000;fill-opacity:1;stroke:none;stroke-width:1px;stroke-linecap:butt;stroke-linejoin:miter;stroke-opacity:1;font-family:Times New Roman"
         xml:space="preserve"><tspan
           y="1289.8824"
           x="1622.4453"
           id="tspan2444"
           sodipodi:role="line">10</tspan></text>
    </g>
    <g
       id="g3294">
      <path
         transform="matrix(0.8799456,0,0,0.8799456,665.10815,844.60333)"
         d="M 887.08201,503.92938 A 25.067486,25.067486 0 1 1 836.94704,503.92938 A 25.067486,25.067486 0 1 1 887.08201,503.92938 z"
         sodipodi:ry="25.067486"
         sodipodi:rx="25.067486"
         sodipodi:cy="503.92938"
         sodipodi:cx="862.01453"
         id="path3292"
         style="opacity:1;fill:#ffffff;fill-opacity:1;fill-rule:nonzero;stroke:#0d0d0d;stroke-width:1;stroke-linecap:round;stroke-linejoin:round;stroke-miterlimit:4;stroke-dasharray:none;stroke-dashoffset:0;stroke-opacity:1"
         sodipodi:type="arc" />
      <text
         id="text2446"
         y="1298.8463"
         x="1407.7122"
         style="font-size:32px;font-style:normal;font-weight:normal;fill:#000000;fill-opacity:1;stroke:none;stroke-width:1px;stroke-linecap:butt;stroke-linejoin:miter;stroke-opacity:1;font-family:Times New Roman"
         xml:space="preserve"><tspan
           y="1298.8463"
           x="1407.7122"
           id="tspan2448"
           sodipodi:role="line">11</tspan></text>
    </g>
    <g
       id="g3301"
       transform="translate(1.1178984,5.4886551)">
      <path
         transform="matrix(0.8799456,0,0,0.8799456,578.44234,1085.9512)"
         d="M 887.08201,503.92938 A 25.067486,25.067486 0 1 1 836.94704,503.92938 A 25.067486,25.067486 0 1 1 887.08201,503.92938 z"
         sodipodi:ry="25.067486"
         sodipodi:rx="25.067486"
         sodipodi:cy="503.92938"
         sodipodi:cx="862.01453"
         id="path3299"
         style="opacity:1;fill:#ffffff;fill-opacity:1;fill-rule:nonzero;stroke:#0d0d0d;stroke-width:1;stroke-linecap:round;stroke-linejoin:round;stroke-miterlimit:4;stroke-dasharray:none;stroke-dashoffset:0;stroke-opacity:1"
         sodipodi:type="arc" />
      <text
         id="text2450"
         y="1540.1941"
         x="1319.7573"
         style="font-size:32px;font-style:normal;font-weight:normal;fill:#000000;fill-opacity:1;stroke:none;stroke-width:1px;stroke-linecap:butt;stroke-linejoin:miter;stroke-opacity:1;font-family:Times New Roman"
         xml:space="preserve"><tspan
           y="1540.1941"
           x="1319.7573"
           id="tspan2452"
           sodipodi:role="line">12</tspan></text>
    </g>
    <g
       id="g3280"
       transform="translate(4.3881424,0)">
      <path
         transform="matrix(0.8799456,0,0,0.8799456,1053.9985,588.61362)"
         d="M 887.08201,503.92938 A 25.067486,25.067486 0 1 1 836.94704,503.92938 A 25.067486,25.067486 0 1 1 887.08201,503.92938 z"
         sodipodi:ry="25.067486"
         sodipodi:rx="25.067486"
         sodipodi:cy="503.92938"
         sodipodi:cx="862.01453"
         id="path3278"
         style="opacity:1;fill:#ffffff;fill-opacity:1;fill-rule:nonzero;stroke:#0d0d0d;stroke-width:1;stroke-linecap:round;stroke-linejoin:round;stroke-miterlimit:4;stroke-dasharray:none;stroke-dashoffset:0;stroke-opacity:1"
         sodipodi:type="arc" />
      <text
         id="text2458"
         y="1042.6378"
         x="1804.5791"
         style="font-size:32px;font-style:normal;font-weight:normal;fill:#000000;fill-opacity:1;stroke:none;stroke-width:1px;stroke-linecap:butt;stroke-linejoin:miter;stroke-opacity:1;font-family:Times New Roman"
         xml:space="preserve"><tspan
           y="1042.6378"
           x="1804.5791"
           id="tspan2460"
           sodipodi:role="line">9</tspan></text>
    </g>
    <g
       id="g3224"
       transform="translate(3.2911068,9.8733204)">
      <path
         transform="matrix(0.8799456,0,0,0.8799456,576.05716,920.3665)"
         d="M 887.08201,503.92938 A 25.067486,25.067486 0 1 1 836.94704,503.92938 A 25.067486,25.067486 0 1 1 887.08201,503.92938 z"
         sodipodi:ry="25.067486"
         sodipodi:rx="25.067486"
         sodipodi:cy="503.92938"
         sodipodi:cx="862.01453"
         id="path3216"
         style="opacity:1;fill:#ffffff;fill-opacity:1;fill-rule:nonzero;stroke:#0d0d0d;stroke-width:1;stroke-linecap:round;stroke-linejoin:round;stroke-miterlimit:4;stroke-dasharray:none;stroke-dashoffset:0;stroke-opacity:1"
         sodipodi:type="arc" />
      <text
         id="text2440"
         y="1374.422"
         x="1318.0361"
         style="font-size:32px;font-style:normal;font-weight:normal;fill:#000000;fill-opacity:1;stroke:none;stroke-width:1px;stroke-linecap:butt;stroke-linejoin:miter;stroke-opacity:1;font-family:Times New Roman"
         xml:space="preserve"><tspan
           y="1374.422"
           x="1318.0361"
           id="tspan2442"
           sodipodi:role="line">13</tspan></text>
    </g>
    <text
       xml:space="preserve"
       style="font-size:32px;font-style:normal;font-weight:bold;fill:#000000;fill-opacity:1;stroke:#fefefe;stroke-width:0.5;stroke-linecap:butt;stroke-linejoin:miter;stroke-miterlimit:4;stroke-dasharray:none;stroke-opacity:1;font-family:Times New Roman;-inkscape-font-specification:Times New Roman Bold"
       x="582.49371"
       y="1569.3436"
       id="text3306"><tspan
         sodipodi:role="line"
         id="tspan3308"
         x="582.49371"
         y="1569.3436">The Keyhole</tspan></text>
    <path
       sodipodi:type="star"
       style="opacity:1;fill:#000000;fill-opacity:1;stroke:#ffffff;stroke-width:1;stroke-linecap:round;stroke-linejoin:miter;stroke-miterlimit:4;stroke-dasharray:none;stroke-dashoffset:0;stroke-opacity:1"
       id="path3312"
       sodipodi:sides="3"
       sodipodi:cx="1683.6964"
       sodipodi:cy="1391.4535"
       sodipodi:r1="14.134234"
       sodipodi:r2="7.0671172"
       sodipodi:arg1="0.52359878"
       sodipodi:arg2="1.5707963"
       inkscape:flatsided="true"
       inkscape:rounded="0"
       inkscape:randomized="0"
       d="M 1695.937,1398.5206 L 1671.4558,1398.5206 L 1683.6964,1377.3193 L 1695.937,1398.5206 z"
       transform="matrix(-0.1990757,0.2711484,0.8218285,0.6033818,-242.75548,240.26413)" />
    <path
       style="fill:none;fill-rule:evenodd;stroke:#000000;stroke-width:1;stroke-linecap:butt;stroke-linejoin:miter;stroke-miterlimit:4;stroke-dasharray:1, 2;stroke-dashoffset:0;stroke-opacity:1"
       d="M 816.19448,-2.2784358 C 859.60069,121.42723 884.21069,103.03698 924.80101,52.573344 C 950.68349,20.395115 985.24423,-25.382427 942.35358,-39.577646 C 859.85907,-66.880278 805.52853,-32.675892 816.19448,-2.2784358 z"
       id="path3316"
       transform="translate(469.49908,862.93707)"
       sodipodi:nodetypes="csss" />
    <text
       xml:space="preserve"
       style="font-size:32px;font-style:normal;font-weight:bold;fill:#000000;fill-opacity:1;stroke:#ffffff;stroke-width:1px;stroke-linecap:butt;stroke-linejoin:miter;stroke-opacity:1;font-family:Times New Roman;-inkscape-font-specification:Times New Roman Bold"
       x="1271.4321"
       y="771.79877"
       id="text3318"><tspan
         sodipodi:role="line"
         id="tspan3320"
         x="1271.4321"
         y="771.79877">China Beach</tspan></text>
    <path
       sodipodi:type="star"
       style="opacity:1;fill:#000000;fill-opacity:1;stroke:#ffffff;stroke-width:1.00064099;stroke-linecap:round;stroke-linejoin:miter;stroke-miterlimit:4;stroke-dasharray:none;stroke-dashoffset:0;stroke-opacity:1"
       id="path3322"
       sodipodi:sides="3"
       sodipodi:cx="1683.6964"
       sodipodi:cy="1391.4535"
       sodipodi:r1="14.134234"
       sodipodi:r2="7.0671172"
       sodipodi:arg1="0.52359878"
       sodipodi:arg2="1.5707963"
       inkscape:flatsided="true"
       inkscape:rounded="0"
       inkscape:randomized="0"
       d="M 1695.937,1398.5206 L 1671.4558,1398.5206 L 1683.6964,1377.3193 L 1695.937,1398.5206 z"
       transform="matrix(0.335686,2.1622384e-2,6.5535542e-2,-1.0174364,701.09346,2167.6837)" />
    <text
       xml:space="preserve"
       style="font-size:32px;font-style:normal;font-weight:normal;fill:#000000;fill-opacity:1;stroke:none;stroke-width:1px;stroke-linecap:butt;stroke-linejoin:miter;stroke-opacity:1;font-family:Times New Roman"
       x="1669.6327"
       y="596.21741"
       id="text3324"
       transform="matrix(0.9732202,0.229875,-0.229875,0.9732202,0,0)"><tspan
         sodipodi:role="line"
         id="tspan3326"
         x="1669.6327"
         y="596.21741">The Esses</tspan></text>
    <text
       xml:space="preserve"
       style="font-size:31.99999809px;font-style:normal;font-weight:bold;fill:#000000;fill-opacity:1;stroke:#ffffff;stroke-width:0.49999997;stroke-linecap:butt;stroke-linejoin:miter;stroke-miterlimit:4;stroke-dasharray:none;stroke-opacity:1;font-family:Times New Roman;-inkscape-font-specification:Times New Roman Bold"
       x="255.84875"
       y="2068.6436"
       id="text3328"
       transform="matrix(0.7112655,-0.7029234,0.7029234,0.7112655,0,0)"><tspan
         sodipodi:role="line"
         id="tspan3330"
         x="255.84875"
         y="2068.6436"
         style="stroke-width:0.49999997">Thunder Valley</tspan></text>
    <text
       xml:space="preserve"
       style="font-size:32px;font-style:normal;font-variant:normal;font-weight:bold;font-stretch:normal;text-align:start;line-height:125%;writing-mode:lr-tb;text-anchor:start;fill:#000000;fill-opacity:1;stroke:#ffffff;stroke-width:0.5;stroke-linecap:butt;stroke-linejoin:miter;stroke-miterlimit:4;stroke-dasharray:none;stroke-opacity:1;font-family:Times New Roman;-inkscape-font-specification:Times New Roman Bold"
       x="1391.7288"
       y="1532.0896"
       id="text3332"
       sodipodi:linespacing="125%"><tspan
         sodipodi:role="line"
         id="tspan3334"
         x="1391.7288"
         y="1532.0896">The Carousel</tspan></text>
    <path
       sodipodi:type="star"
       style="opacity:1;fill:#000000;fill-opacity:1;stroke:#ffffff;stroke-width:1;stroke-linecap:round;stroke-linejoin:miter;stroke-miterlimit:4;stroke-dasharray:none;stroke-dashoffset:0;stroke-opacity:1"
       id="path3336"
       sodipodi:sides="3"
       sodipodi:cx="1683.6964"
       sodipodi:cy="1391.4535"
       sodipodi:r1="14.134234"
       sodipodi:r2="7.0671172"
       sodipodi:arg1="0.52359878"
       sodipodi:arg2="1.5707963"
       inkscape:flatsided="true"
       inkscape:rounded="0"
       inkscape:randomized="0"
       d="M 1695.937,1398.5206 L 1671.4558,1398.5206 L 1683.6964,1377.3193 L 1695.937,1398.5206 z"
       transform="matrix(-0.1990757,0.2711484,0.8218285,0.6033818,603.54305,198.67318)" />
  </g>
</svg>