<svg xmlns="http://www.w3.org/2000/svg" viewBox="0 0 800 560" role="img" aria-label="Circuit outline from OpenStreetMap">
  <g fill="none" stroke="#ff3b2e" stroke-width="7" stroke-linecap="round" stroke-linejoin="round" opacity=".35">
    <path d="M617.6 390.8 L650.1 391.4 L659.3 391.8 L668.0 392.2 L678.0 391.7 L689.0 390.0 L702.7 383.3 L714.0 375.5 L728.5 363.6 L743.1 350.3 L752.3 340.1 L756.4 332.0 L757.0 321.4 L753.9 309.9 L743.0 290.5 L740.8 282.1 L740.8 273.6 L741.6 267.0 L758.8 220.9 L760.0 211.7 L758.5 203.3 L751.7 190.8 L746.2 182.2 L737.0 168.5 L726.4 157.0 L712.1 149.5 L698.0 147.2 L682.7 146.7 L669.7 147.1 L642.5 149.5 L626.1 151.2 L610.0 150.6 L589.8 147.9 L569.3 144.1 L553.3 141.6 L532.9 141.5 L506.8 142.1 L483.7 143.6 L470.6 145.2 L459.4 148.4 L449.1 153.3 L440.6 160.2 L434.6 169.4 L431.4 179.1 L429.8 189.5 L430.3 199.8 L433.3 210.2 L437.7 219.7 L447.2 230.6 L458.3 237.6 L471.8 241.5 L483.7 242.1 L498.7 238.8 L514.8 234.1 L530.8 227.0 L549.0 217.6 L562.2 211.8 L578.7 206.2 L593.6 203.6 L605.2 203.0 L614.5 203.7 L647.9 210.6 L660.4 214.4 L666.8 217.9 L670.8 222.5 L673.9 227.9 L675.1 233.5 L675.1 242.0 L673.5 251.7 L670.6 259.9 L667.7 267.5 L664.3 273.5 L658.7 278.3 L651.7 282.5 L578.2 308.3 L566.6 311.5 L556.4 313.4 L545.0 313.6 L534.7 311.6 L525.8 307.7 L502.3 296.0 L448.6 268.5 L429.7 258.4 L417.2 250.4 L406.6 241.9 L397.8 233.6 L390.9 223.2 L385.1 211.2 L379.4 200.4 L375.8 194.9 L367.3 184.1 L359.8 176.2 L351.5 168.7 L342.4 163.3 L334.0 159.8 L327.3 158.0 L321.5 158.0 L315.8 158.5 L310.4 160.8 L306.1 164.4 L304.1 169.1 L304.0 174.2 L305.2 179.6 L324.5 221.7 L336.8 251.1 L343.8 265.2 L346.3 270.6 L347.1 276.8 L346.9 283.7 L343.8 289.8 L338.5 295.1 L331.1 298.7 L323.6 301.1 L313.9 303.4 L302.8 304.1 L292.3 304.3 L216.6 303.4 L84.1 303.0 L78.6 303.1 L74.9 305.0 L73.5 309.2 L74.0 313.2 L87.9 332.1 L90.5 338.9 L90.0 345.1 L86.4 353.5 L80.4 358.6 L73.0 361.3 L61.0 362.5 L52.6 364.7 L45.1 370.5 L41.1 379.8 L40.0 388.4 L42.1 395.3 L45.9 400.6 L49.6 404.3 L57.0 408.9 L64.5 410.2 L73.5 409.1 L81.9 405.2 L91.1 398.2 L98.2 392.7 L104.4 388.9 L111.2 386.8 L116.7 386.1 L122.7 386.0 L323.2 387.9 L483.9 389.8 L549.7 390.3 L617.6 390.8" />
    <path d="M45.9 400.6 L51.5 411.3 L54.8 414.8 L58.9 417.2 L64.4 418.5 L70.7 418.5 L76.8 417.3 L83.9 414.5 L89.9 411.4 L95.2 407.3 L101.5 401.4 L105.4 398.1 L111.2 395.1 L117.4 393.1 L125.0 392.2 L126.9 392.3 L142.4 392.5 L266.9 394.4 L355.4 395.7 L489.8 397.7 L549.7 390.3" />
    <path d="M483.9 389.8 L486.0 385.1 L492.0 364.1 L493.0 361.5 L495.2 359.2 L498.4 357.9 L502.2 357.7 L506.5 358.2 L630.9 385.7 L659.3 391.8" />
  </g>
  <g fill="none" stroke="#ffd23f" stroke-width="2.5" stroke-linecap="round" stroke-linejoin="round">
    <path d="M617.6 390.8 L650.1 391.4 L659.3 391.8 L668.0 392.2 L678.0 391.7 L689.0 390.0 L702.7 383.3 L714.0 375.5 L728.5 363.6 L743.1 350.3 L752.3 340.1 L756.4 332.0 L757.0 321.4 L753.9 309.9 L743.0 290.5 L740.8 282.1 L740.8 273.6 L741.6 267.0 L758.8 220.9 L760.0 211.7 L758.5 203.3 L751.7 190.8 L746.2 182.2 L737.0 168.5 L726.4 157.0 L712.1 149.5 L698.0 147.2 L682.7 146.7 L669.7 147.1 L642.5 149.5 L626.1 151.2 L610.0 150.6 L589.8 147.9 L569.3 144.1 L553.3 141.6 L532.9 141.5 L506.8 142.1 L483.7 143.6 L470.6 145.2 L459.4 148.4 L449.1 153.3 L440.6 160.2 L434.6 169.4 L431.4 179.1 L429.8 189.5 L430.3 199.8 L433.3 210.2 L437.7 219.7 L447.2 230.6 L458.3 237.6 L471.8 241.5 L483.7 242.1 L498.7 238.8 L514.8 234.1 L530.8 227.0 L549.0 217.6 L562.2 211.8 L578.7 206.2 L593.6 203.6 L605.2 203.0 L614.5 203.7 L647.9 210.6 L660.4 214.4 L666.8 217.9 L670.8 222.5 L673.9 227.9 L675.1 233.5 L675.1 242.0 L673.5 251.7 L670.6 259.9 L667.7 267.5 L664.3 273.5 L658.7 278.3 L651.7 282.5 L578.2 308.3 L566.6 311.5 L556.4 313.4 L545.0 313.6 L534.7 311.6 L525.8 307.7 L502.3 296.0 L448.6 268.5 L429.7 258.4 L417.2 250.4 L406.6 241.9 L397.8 233.6 L390.9 223.2 L385.1 211.2 L379.4 200.4 L375.8 194.9 L367.3 184.1 L359.8 176.2 L351.5 168.7 L342.4 163.3 L334.0 159.8 L327.3 158.0 L321.5 158.0 L315.8 158.5 L310.4 160.8 L306.1 164.4 L304.1 169.1 L304.0 174.2 L305.2 179.6 L324.5 221.7 L336.8 251.1 L343.8 265.2 L346.3 270.6 L347.1 276.8 L346.9 283.7 L343.8 289.8 L338.5 295.1 L331.1 298.7 L323.6 301.1 L313.9 303.4 L302.8 304.1 L292.3 304.3 L216.6 303.4 L84.1 303.0 L78.6 303.1 L74.9 305.0 L73.5 309.2 L74.0 313.2 L87.9 332.1 L90.5 338.9 L90.0 345.1 L86.4 353.5 L80.4 358.6 L73.0 361.3 L61.0 362.5 L52.6 364.7 L45.1 370.5 L41.1 379.8 L40.0 388.4 L42.1 395.3 L45.9 400.6 L49.6 404.3 L57.0 408.9 L64.5 410.2 L73.5 409.1 L81.9 405.2 L91.1 398.2 L98.2 392.7 L104.4 388.9 L111.2 386.8 L116.7 386.1 L122.7 386.0 L323.2 387.9 L483.9 389.8 L549.7 390.3 L617.6 390.8" />
    <path d="M45.9 400.6 L51.5 411.3 L54.8 414.8 L58.9 417.2 L64.4 418.5 L70.7 418.5 L76.8 417.3 L83.9 414.5 L89.9 411.4 L95.2 407.3 L101.5 401.4 L105.4 398.1 L111.2 395.1 L117.4 393.1 L125.0 392.2 L126.9 392.3 L142.4 392.5 L266.9 394.4 L355.4 395.7 L489.8 397.7 L549.7 390.3" />
    <path d="M483.9 389.8 L486.0 385.1 L492.0 364.1 L493.0 361.5 L495.2 359.2 L498.4 357.9 L502.2 357.7 L506.5 358.2 L630.9 385.7 L659.3 391.8" />
  </g>
</svg>
